<?xml version="1.0" standalone="no"?>
<!DOCTYPE svg PUBLIC "-//W3C//DTD SVG 20010904//EN"
 "http://www.w3.org/TR/2001/REC-SVG-20010904/DTD/svg10.dtd">
<svg version="1.0" xmlns="http://www.w3.org/2000/svg"
 width="512.000000pt" height="512.000000pt" viewBox="0 0 512.000000 512.000000"
 preserveAspectRatio="xMidYMid meet">
<metadata>
Created by potrace 1.16, written by Peter Selinger 2001-2019
</metadata>
<g transform="translate(0.000000,512.000000) scale(0.100000,-0.100000)"
fill="#000000" stroke="none">
<path d="M0 5089 l0 -30 35 27 c19 14 35 28 35 30 0 2 -16 4 -35 4 -32 0 -35
-2 -35 -31z"/>
<path d="M113 5096 c-72 -42 -113 -77 -113 -99 0 -20 1 -20 28 5 44 40 91 70
151 94 l56 24 -40 0 c-24 0 -57 -10 -82 -24z"/>
<path d="M280 5110 c0 -5 -9 -10 -21 -10 -36 0 -141 -56 -201 -107 l-57 -48 0
-60 -1 -60 26 55 c29 64 92 132 149 163 33 18 56 22 140 22 85 0 106 -3 143
-23 l42 -23 25 25 c14 14 25 37 25 51 0 22 -4 25 -34 25 -19 0 -36 -6 -39 -12
-3 -10 -9 -10 -26 0 -25 14 -171 17 -171 2z"/>
<path d="M731 5088 c11 -38 3 -112 -16 -147 -11 -21 -10 -31 1 -64 20 -56 18
-64 -16 -76 -27 -9 -30 -14 -30 -56 0 -51 -31 -148 -56 -176 -14 -16 -15 -21
-3 -35 12 -14 11 -16 -6 -12 -11 2 -19 10 -17 18 3 11 0 11 -15 0 -10 -8 -20
-16 -23 -18 -3 -2 6 -12 20 -22 14 -10 22 -22 18 -26 -4 -4 -13 -2 -21 4 -10
8 -21 6 -44 -8 -93 -56 -217 -60 -320 -10 -49 25 -67 29 -82 20 -31 -16 -48
-13 -29 6 15 15 14 19 -11 55 -16 21 -34 52 -41 69 -7 16 -19 30 -26 30 -18 0
-20 -170 -2 -188 9 -9 9 -15 0 -24 -19 -19 -14 -38 11 -38 25 0 67 -41 67 -65
0 -10 10 -15 28 -15 16 0 37 -9 46 -19 16 -18 17 -33 11 -135 -4 -64 -9 -116
-11 -116 -1 0 -14 4 -28 10 -24 9 -26 15 -26 67 0 56 -1 58 -52 106 l-53 50
-3 -41 c-2 -32 2 -45 22 -66 22 -21 26 -34 26 -86 0 -53 2 -60 20 -60 10 0 45
-9 75 -21 l57 -21 28 27 28 26 -25 25 c-19 19 -24 31 -19 52 4 15 9 46 13 70
6 42 23 59 23 22 0 -11 4 -20 9 -20 11 0 21 25 21 51 0 10 5 19 10 19 6 0 10
-22 10 -49 0 -31 5 -53 15 -61 18 -15 20 -51 3 -68 -20 -20 -32 -13 -13 8 38
42 -19 94 -59 54 -9 -8 -16 -23 -16 -32 0 -26 29 -62 49 -62 23 0 102 -69 80
-70 -9 0 -28 9 -42 20 -31 25 -31 25 -67 -2 l-29 -21 51 -53 52 -52 27 42 c59
94 243 164 354 135 71 -19 101 -51 160 -173 62 -127 97 -169 176 -208 107 -54
330 -64 424 -18 65 32 121 84 135 125 11 34 36 62 46 52 3 -3 -2 -19 -11 -36
-19 -39 0 -43 33 -8 25 27 27 39 10 67 -10 15 -9 26 5 55 19 40 25 235 7 235
-5 0 -13 0 -17 0 -5 0 -10 -50 -13 -111 -5 -106 -6 -112 -33 -135 -15 -13 -41
-24 -56 -24 -26 0 -30 5 -40 45 -17 66 10 105 73 105 25 0 26 2 26 70 0 56 -3
68 -14 64 -9 -3 -19 4 -27 18 -6 13 -28 43 -47 67 -20 24 -29 42 -21 39 8 -2
32 -28 54 -56 22 -28 43 -51 47 -51 14 -2 20 72 10 107 -13 41 -9 50 13 32 10
-8 15 -30 15 -61 0 -43 3 -50 29 -63 37 -20 41 -31 41 -134 l0 -87 33 0 c29 0
33 -4 46 -43 18 -59 11 -72 -44 -72 -40 0 -45 -2 -45 -22 0 -13 -9 -36 -21
-53 -11 -16 -36 -60 -54 -97 -45 -87 -87 -113 -197 -123 -43 -4 -78 -11 -78
-16 0 -5 8 -37 17 -71 15 -53 21 -63 50 -74 18 -8 33 -20 33 -28 0 -11 -10
-12 -46 -5 -26 5 -52 14 -59 19 -9 8 -14 6 -19 -6 -9 -22 -8 -25 7 -22 19 4
77 -23 77 -37 0 -7 -9 -15 -20 -18 -45 -12 -37 -84 10 -94 33 -6 36 -13 18
-31 -20 -20 -67 -14 -93 13 -19 18 -25 35 -25 65 l0 42 -36 -22 c-73 -46 -209
-7 -249 71 -25 47 -10 47 33 1 22 -23 43 -42 47 -42 5 0 -5 15 -22 33 -41 43
-53 69 -53 114 0 105 125 175 226 127 37 -18 84 -86 84 -121 0 -12 -9 -31 -20
-44 l-19 -24 -1 48 c0 40 -5 54 -29 78 -25 24 -37 29 -80 29 -42 0 -56 -5 -83
-29 -29 -26 -33 -35 -33 -81 0 -46 4 -55 33 -81 46 -41 102 -40 166 2 63 42
80 69 73 120 -11 79 -68 129 -150 129 -59 0 -103 -18 -141 -58 -23 -25 -30
-43 -35 -93 -5 -55 -8 -60 -20 -45 -8 9 -16 39 -19 67 -5 55 8 78 63 107 16 8
25 17 18 19 -18 6 -90 -46 -97 -70 -3 -12 -6 -41 -6 -64 0 -40 -2 -42 -32 -45
l-33 -3 -3 -124 c-2 -76 1 -128 8 -135 7 -7 10 3 10 32 0 36 4 44 30 57 34 17
83 20 111 5 17 -10 19 -22 19 -111 0 -93 -1 -100 -17 -94 -114 49 -231 -54
-193 -169 6 -19 20 -46 31 -60 19 -25 25 -26 115 -26 77 0 94 -3 94 -15 0 -12
-18 -15 -106 -15 -102 0 -151 -11 -139 -31 4 -5 62 -9 131 -9 76 0 124 -4 124
-10 0 -6 -48 -10 -125 -10 l-125 0 0 -50 0 -50 130 0 131 0 -3 -87 c-3 -88 -3
-88 -30 -91 -20 -2 -28 1 -28 12 0 13 -12 16 -59 16 -54 0 -59 -2 -65 -25 -5
-19 -13 -25 -32 -25 l-26 0 5 -92 c2 -51 12 -185 21 -298 14 -162 21 -208 34
-217 21 -17 85 -16 157 2 67 17 225 92 268 127 l28 23 -26 35 c-66 88 -124
243 -145 389 -14 95 -8 302 11 369 16 59 58 99 113 107 38 6 45 11 50 35 5 27
41 58 53 46 3 -3 1 -18 -5 -33 -8 -20 -9 -89 -3 -228 4 -110 4 -204 -1 -209
-10 -12 -9 -92 2 -126 5 -15 6 -1 3 36 l-6 62 32 7 c39 8 61 -8 61 -45 0 -45
37 -151 71 -205 40 -65 83 -109 139 -145 99 -63 101 -64 515 -72 209 -4 414
-10 456 -13 45 -4 93 -2 117 5 56 15 121 66 157 125 29 46 30 54 35 189 l5
141 30 0 30 0 3 -118 c4 -185 -32 -285 -125 -350 -70 -48 -104 -57 -227 -57
-101 0 -117 -2 -125 -18 -21 -39 -2 -44 140 -34 153 10 197 25 269 90 25 22
59 64 75 93 29 51 30 61 33 194 5 183 22 203 22 24 -1 -150 -12 -196 -67 -273
-70 -98 -161 -139 -334 -150 -53 -4 -132 -15 -175 -26 -60 -16 -85 -18 -113
-10 -20 5 -97 10 -172 10 -120 0 -155 4 -290 35 -210 48 -239 56 -254 71 -10
11 -23 6 -71 -24 -33 -20 -61 -39 -64 -42 -25 -30 -190 -128 -399 -236 -166
-85 -218 -131 -268 -232 -38 -76 -38 -76 -38 -201 0 -124 0 -127 34 -189 68
-125 188 -191 326 -180 106 9 245 90 228 134 -4 11 -3 15 4 11 6 -4 27 11 47
34 109 128 91 357 -39 479 -28 26 -32 40 -11 40 22 0 85 -79 117 -146 50 -105
49 -268 -3 -351 -23 -38 -19 -40 62 -21 l52 12 -3 200 c-3 227 -3 226 69 207
66 -18 96 -81 37 -81 l-23 0 -4 -487 -3 -488 -31 -66 c-38 -81 -107 -143 -196
-180 -53 -21 -64 -30 -66 -52 -3 -27 -3 -27 59 -27 57 0 66 3 123 44 35 25 82
71 106 103 24 32 48 61 54 65 15 11 114 10 134 -1 9 -4 30 -11 46 -15 29 -7
28 -7 -14 41 -80 90 -85 108 -88 358 l-2 220 19 -40 c22 -47 74 -99 114 -114
32 -12 327 -15 327 -3 0 4 -51 6 -114 4 -191 -7 -255 18 -311 119 -30 54 -30
54 -35 264 -6 202 -7 214 -40 323 -34 114 -63 162 -97 162 -10 0 -48 -32 -84
-70 -47 -51 -71 -69 -83 -64 -24 9 -30 47 -16 102 9 38 23 61 66 103 51 50 67
79 44 79 -9 0 -77 -51 -153 -116 -31 -26 -47 -24 -47 6 0 21 235 250 257 250
23 0 264 -70 295 -86 21 -11 82 -14 269 -14 134 0 256 4 273 9 17 6 85 14 151
20 195 16 211 24 398 213 87 88 156 162 153 165 -3 4 -15 -2 -26 -12 -28 -25
-35 -14 -10 18 30 38 26 73 -10 92 -47 24 -36 35 38 35 67 0 67 0 114 48 l48
48 2 179 3 180 27 3 c40 5 51 -25 46 -124 -2 -52 1 -84 7 -84 6 0 10 13 10 28
l0 27 284 3 c221 2 286 -1 293 -10 10 -17 10 -30 -2 -48 -8 -13 -49 -15 -267
-15 l-258 0 -1 -108 c0 -118 -4 -127 -57 -127 -23 0 -31 -7 -47 -45 -10 -24
-24 -62 -29 -82 -11 -39 -162 -234 -327 -421 -97 -111 -203 -257 -221 -305 -6
-17 -12 -82 -12 -143 -1 -111 -1 -113 -36 -164 l-35 -51 28 -24 c30 -27 54
-31 70 -12 6 6 12 81 14 167 4 176 9 193 85 272 45 46 45 46 79 32 24 -10 40
-11 59 -4 15 6 40 10 57 10 33 0 110 41 89 48 -6 2 -25 -1 -41 -8 -22 -9 -37
-9 -64 0 -76 25 -89 96 -28 157 20 21 48 52 62 68 34 41 110 102 143 114 20 8
27 17 27 36 0 36 33 59 92 65 l52 5 13 46 c16 55 20 56 129 51 l81 -4 12 -38
c6 -21 24 -52 40 -69 l29 -31 169 0 c247 0 249 2 283 269 12 91 26 174 32 184
6 12 9 103 9 238 l-2 219 56 0 56 0 -7 -50 c-7 -57 8 -67 42 -29 10 11 28 26
39 31 14 7 10 0 -11 -23 -51 -55 -54 -67 -54 -228 0 -129 -3 -154 -19 -183
-12 -21 -25 -79 -36 -163 -26 -206 -50 -257 -154 -322 -63 -40 -111 -82 -111
-97 0 -5 12 1 28 15 59 54 62 55 81 30 17 -22 19 -22 47 -8 16 8 46 18 67 22
22 4 37 13 37 21 0 21 37 54 60 54 26 0 37 -27 22 -51 -10 -15 -7 -19 23 -29
49 -16 141 -104 170 -160 13 -26 27 -71 31 -99 6 -46 10 -53 34 -57 23 -5 26
-10 23 -32 l-5 -27 19 23 c15 18 24 21 52 16 30 -6 32 -9 27 -37 -3 -17 -9
-33 -11 -36 -3 -3 -27 1 -53 9 -26 7 -72 16 -102 19 l-55 6 2 60 c6 156 -86
265 -223 265 -140 0 -233 -89 -234 -223 0 -134 97 -237 225 -237 66 0 108 16
158 59 32 28 38 30 56 19 12 -7 21 -18 21 -24 0 -30 -145 -124 -191 -124 -9 0
-24 -9 -34 -20 -31 -35 -153 -21 -175 19 -5 10 -6 27 -3 39 4 15 1 22 -10 22
-8 0 -17 -9 -20 -20 -15 -59 -129 26 -167 124 -8 21 -5 24 22 30 39 8 32 30
-13 34 -18 2 -37 9 -41 15 -12 18 -9 132 4 205 l12 65 -32 28 c-30 27 -39 29
-107 29 -51 0 -94 7 -133 21 -112 40 -111 40 -129 13 -24 -38 -65 -54 -134
-54 -52 0 -75 -6 -136 -37 -40 -20 -80 -44 -89 -54 -14 -15 -13 -19 10 -45 23
-28 26 -28 60 -16 43 16 98 2 120 -30 14 -20 14 -20 89 6 129 45 204 32 270
-44 59 -70 68 -172 20 -239 -10 -14 -51 -42 -91 -62 -40 -20 -93 -54 -120 -76
-68 -56 -69 -57 -108 -34 -19 12 -50 21 -67 21 -43 0 -59 12 -55 41 3 22 8 24
65 27 35 2 72 -2 84 -9 17 -9 24 -8 37 5 19 19 8 34 -12 17 -21 -18 -36 -5
-36 29 0 60 71 82 112 35 17 -20 31 -25 69 -25 40 0 53 5 78 30 73 74 45 207
-53 251 -38 17 -41 17 -45 1 -7 -34 -23 -42 -85 -42 -33 0 -66 -4 -72 -8 -6
-4 -11 -37 -11 -74 0 -37 -6 -81 -12 -96 -22 -53 -95 -92 -199 -107 -55 -7
-85 -26 -76 -49 3 -8 29 -26 57 -41 29 -15 98 -51 155 -82 57 -30 104 -54 106
-52 1 2 12 20 24 40 77 128 267 214 420 190 36 -6 89 -22 119 -37 51 -24 55
-25 73 -9 22 20 35 6 26 -29 -4 -17 2 -30 24 -51 l30 -28 33 18 c19 10 42 15
51 12 26 -10 19 -45 -13 -62 -35 -18 -41 -32 -27 -63 9 -21 15 -23 49 -18 30
5 44 2 58 -10 27 -24 23 -37 -14 -54 -17 -8 -30 -19 -27 -25 3 -5 9 -8 15 -6
33 13 48 5 59 -33 19 -65 31 -47 34 51 2 82 0 96 -19 122 -15 20 -22 45 -23
82 -1 50 1 54 28 63 25 9 31 7 52 -17 12 -15 27 -27 31 -27 4 0 38 24 75 54
58 46 66 56 53 66 -8 7 -15 19 -15 26 0 17 22 18 38 2 9 -9 20 -4 47 22 19 19
35 40 35 47 0 21 38 15 45 -7 8 -25 -3 -45 -42 -73 -17 -12 -77 -59 -134 -105
-57 -46 -116 -86 -131 -89 -28 -5 -37 -26 -18 -38 6 -4 10 -53 10 -114 0 -95
-2 -110 -20 -126 -15 -14 -29 -16 -60 -11 -36 6 -40 4 -40 -15 0 -21 4 -21 78
-17 84 5 126 24 136 61 3 12 6 71 6 132 l0 109 78 76 c42 42 87 89 99 106 21
27 23 28 34 11 10 -18 12 -18 30 -1 21 19 26 5 8 -27 -9 -19 -9 -19 9 -10 18
9 23 6 41 -22 24 -40 72 -85 128 -120 l43 -27 0 30 c0 24 -7 33 -37 49 -60 31
-133 110 -133 144 0 10 -7 17 -15 17 -12 0 -15 15 -15 79 0 133 44 215 145
267 l55 29 0 78 c0 46 -4 77 -10 77 -10 0 -89 -37 -99 -46 -3 -3 12 -22 33
-43 38 -38 38 -38 13 -45 -26 -6 -97 -71 -140 -129 -15 -20 -35 -37 -44 -37
-13 0 -15 14 -8 117 4 68 12 123 19 130 6 7 61 32 121 56 l110 44 3 37 c3 34
1 36 -25 36 -37 0 -100 -41 -186 -119 -37 -35 -88 -73 -115 -86 l-47 -23 -58
56 -58 57 1 130 c2 72 2 136 1 143 -1 9 -16 12 -53 10 l-53 -3 -5 -45 c-5 -42
-8 -46 -40 -41 -11 1 -14 109 -4 135 5 13 23 16 88 16 50 0 87 -5 94 -12 8 -8
12 -60 12 -168 0 -139 2 -159 18 -173 31 -29 64 -20 127 33 33 27 96 77 139
110 73 57 83 61 123 58 39 -3 43 -1 43 19 0 21 -5 23 -45 23 -26 0 -59 -7 -75
-15 l-30 -16 0 40 c0 51 16 60 92 54 56 -6 58 -5 58 19 0 21 -4 24 -29 20 -29
-4 -29 -4 -34 59 -10 115 -16 136 -46 149 -20 8 -35 8 -57 -1 -16 -6 -49 -11
-74 -10 -33 1 -41 -1 -30 -8 8 -6 25 -11 38 -11 21 0 22 -4 22 -75 0 -43 -4
-75 -10 -75 -5 0 -10 -9 -10 -19 0 -34 -28 -51 -88 -53 -55 -2 -55 -2 -11 -5
l46 -4 5 -63 c8 -91 -2 -135 -34 -159 -23 -17 -33 -19 -55 -11 l-28 9 -3 117
c-2 87 -6 119 -17 128 -12 10 -15 50 -15 225 0 280 -12 263 188 267 l146 3 2
38 c1 44 15 57 62 57 31 0 32 1 32 46 0 48 -4 50 -48 11 -15 -15 -40 -22 -82
-25 l-60 -4 0 -45 c0 -40 -2 -44 -22 -41 -20 3 -23 10 -26 51 l-3 47 -103 0
-102 0 -27 -41 c-26 -39 -27 -46 -27 -180 0 -89 4 -139 10 -139 7 0 10 -35 8
-97 l-3 -98 -55 0 -55 0 0 85 c0 47 5 101 12 120 7 23 10 67 6 126 -8 132 1
181 44 221 l34 33 187 0 c166 0 192 3 232 21 60 27 80 47 80 80 l0 28 -36 -24
c-20 -14 -53 -30 -73 -36 -25 -7 -263 -8 -797 -2 -742 8 -763 9 -784 28 -28
26 -46 61 -55 108 l-7 37 236 0 236 0 0 -38 c0 -72 10 -77 161 -74 74 2 137 6
141 8 4 3 8 25 8 50 l0 44 -80 0 -80 0 0 -35 0 -35 68 -1 c107 -1 43 -16 -75
-18 -92 -1 -103 1 -113 18 -15 30 -12 78 6 85 23 9 307 7 321 -2 6 -4 13 -30
15 -57 3 -46 5 -50 31 -53 26 -3 27 -2 27 46 0 52 17 79 45 68 10 -4 15 -19
15 -50 0 -32 4 -46 18 -51 9 -3 159 -3 332 0 287 6 319 9 355 27 53 26 85 57
85 81 0 19 -1 19 -26 -4 -24 -22 -33 -24 -140 -24 l-114 0 -36 37 c-32 31 -38
45 -42 90 -4 52 -3 56 43 108 58 68 65 85 65 166 l0 64 40 0 40 0 -6 -57 c-4
-48 -2 -62 15 -83 l21 -25 0 53 c0 55 13 91 36 105 8 4 14 17 14 27 0 19 -8
20 -100 20 l-100 0 0 -77 c0 -93 -20 -143 -74 -191 -31 -27 -45 -32 -86 -32
l-50 0 0 -43 c0 -82 39 -77 -621 -77 -442 0 -588 3 -597 12 -9 9 -12 90 -12
305 0 279 1 293 19 303 13 6 219 10 600 10 514 0 581 -2 595 -16 13 -12 16
-40 16 -138 l0 -123 72 68 72 69 144 0 c139 0 144 1 178 26 l34 26 0 99 c0 54
-4 101 -10 104 -13 8 -13 52 0 60 6 4 10 53 10 116 l0 109 -30 0 -30 0 0 -215
c0 -194 -2 -215 -17 -223 -10 -5 -100 -7 -200 -4 -146 4 -183 7 -183 18 0 11
34 14 181 14 166 0 180 1 177 18 -3 15 -21 17 -181 20 l-177 2 0 328 0 328
-32 31 c-46 44 -119 55 -153 23 -29 -27 -59 -23 -63 8 -7 46 23 62 110 62 77
0 79 1 109 35 30 34 34 35 100 35 61 0 69 2 69 19 0 11 -19 36 -42 55 l-42 36
-132 0 -132 0 -48 33 c-54 36 -104 111 -111 168 -7 50 13 104 54 150 l35 39
-136 0 c-144 0 -153 -3 -121 -46 12 -16 14 -71 15 -316 0 -164 -4 -298 -9
-298 -5 0 -12 135 -16 301 -4 166 -10 313 -14 327 -5 20 -15 28 -34 30 -29 4
-28 10 -31 -178 -1 -33 -5 -45 -16 -45 -12 0 -14 11 -12 49 6 79 -7 176 -24
176 -10 0 -14 -14 -14 -55 0 -30 -4 -55 -10 -55 -5 0 -10 25 -10 55 0 49 -2
55 -21 55 l-21 0 7 -234 c5 -171 4 -239 -5 -255 -21 -40 -69 -61 -140 -61 -76
0 -135 -24 -135 -55 0 -17 6 -20 36 -17 21 2 40 -1 44 -7 4 -7 -3 -11 -18 -11
-13 0 -32 -9 -42 -20 -24 -26 -5 -50 41 -50 23 0 38 -7 48 -22 25 -35 19 -40
-21 -18 -21 11 -49 20 -64 20 -42 0 -59 28 -59 98 0 82 14 92 132 92 70 0 88
3 88 14 0 8 -5 18 -12 22 -18 11 -221 4 -235 -8 -9 -7 -13 -43 -13 -114 0 -86
-3 -104 -15 -104 -13 0 -15 21 -15 125 0 113 2 125 19 135 11 5 76 10 145 10
114 0 126 2 136 19 15 28 13 33 -9 21 -24 -12 -210 -13 -230 -1 -14 9 62 18
189 24 55 2 55 2 58 35 2 22 -3 41 -14 53 -15 17 -16 24 -6 39 8 13 12 65 12
145 l0 125 -25 0 -25 0 0 -123 c0 -123 0 -124 -25 -135 -14 -7 -45 -12 -68
-13 -33 0 -57 -10 -112 -47 -38 -26 -75 -58 -82 -72 -17 -33 -18 -356 -2 -366
7 -4 55 -9 108 -12 72 -3 99 -8 109 -20 19 -24 17 -448 -2 -455 -8 -3 -17 -3
-20 0 -3 4 -6 98 -6 209 0 240 3 234 -98 232 -102 -1 -102 -1 -102 -123 l0
-105 26 0 c33 0 64 -17 64 -35 0 -12 -17 -15 -85 -15 l-85 0 0 383 0 384 28
39 c18 24 53 53 90 72 34 18 66 42 72 52 5 10 10 48 10 84 l0 66 -115 0 -115
0 0 -60 c0 -72 -17 -119 -55 -148 -25 -20 -40 -22 -156 -22 l-129 0 0 -84 c0
-62 -4 -87 -15 -96 -19 -16 -19 -30 -1 -30 24 0 56 50 56 86 0 33 1 34 39 34
42 0 51 -11 51 -61 0 -34 -17 -69 -67 -146 -39 -59 -58 -65 -103 -31 -23 16
-27 25 -19 35 18 21 -264 19 -286 -3 -14 -15 -14 -19 2 -48 11 -17 54 -54 98
-83 80 -53 108 -81 63 -64 -12 5 -63 27 -112 50 l-89 41 -246 0 c-135 0 -262
4 -280 10 -19 5 -46 20 -60 34 -14 13 -49 31 -78 40 -71 23 -151 83 -218 164
-59 70 -131 201 -118 212 16 14 94 40 118 40 23 0 25 -3 25 -49 0 -39 6 -56
27 -83 40 -47 45 -49 70 -26 l23 21 26 -24 c50 -46 126 -149 121 -163 -3 -8
15 -36 43 -65 l49 -51 229 0 229 0 -4 24 c-7 36 24 86 62 102 23 9 72 14 143
14 101 0 110 2 130 23 19 20 22 35 22 100 l0 77 -212 -1 c-117 0 -222 -4 -233
-8 -11 -4 -40 -35 -66 -67 -57 -74 -100 -104 -150 -104 -32 0 -41 5 -53 28
-16 31 -53 52 -91 52 -22 0 -25 4 -25 37 0 26 -12 56 -36 96 -44 71 -53 121
-29 166 16 32 16 33 -7 29 -29 -4 -47 -41 -61 -124 l-11 -64 34 -35 c23 -24
40 -33 52 -29 27 8 23 -19 -8 -56 l-26 -31 49 -49 50 -50 150 0 c160 0 165 1
178 52 4 14 18 37 32 50 24 23 28 23 226 23 l202 0 0 -25 0 -25 -190 -6 c-104
-3 -191 -6 -192 -7 -2 -1 -3 -13 -3 -26 0 -34 -44 -82 -87 -97 -23 -7 -87 -10
-188 -7 -162 4 -191 12 -179 50 7 22 -33 75 -148 192 -73 74 -78 83 -80 125
-3 76 -2 95 6 119 11 33 -18 29 -61 -8 -18 -16 -38 -30 -44 -30 -5 0 -14 -11
-19 -24 -6 -16 -24 -29 -54 -39 l-46 -16 0 70 0 69 -405 0 -405 0 0 -115 c0
-67 4 -115 10 -115 31 0 117 -234 127 -347 12 -136 -48 -292 -141 -366 -87
-69 -118 -78 -256 -75 -156 4 -160 22 -5 26 82 2 115 6 115 15 0 9 -31 11
-123 9 -117 -3 -123 -2 -142 19 -21 24 -21 24 29 3 26 -10 58 34 54 72 -4 34
-2 36 65 71 80 43 207 157 232 210 10 21 24 43 31 51 8 7 19 31 26 53 15 51 0
129 -37 200 -23 44 -25 60 -25 169 l0 120 -34 0 c-34 0 -35 0 -25 -32z m814
-38 c18 -11 38 -35 44 -52 16 -45 15 -305 -1 -314 -7 -5 -100 -8 -208 -9
l-195 0 0 -25 c0 -25 1 -25 108 -32 119 -8 264 -42 361 -85 69 -31 202 -107
229 -131 16 -14 19 -13 42 8 14 13 25 32 25 42 0 9 11 25 25 34 24 16 28 15
73 -8 55 -28 66 -57 30 -82 -12 -9 -38 -16 -56 -16 -25 0 -47 -11 -81 -38 -70
-59 -66 -59 -132 2 -77 71 -132 109 -222 151 -111 53 -173 65 -330 65 -174 0
-197 9 -197 82 0 36 -1 37 -41 40 -37 3 -43 7 -65 48 -21 39 -24 58 -24 148 0
74 4 112 16 133 27 53 54 58 323 59 228 0 246 -1 276 -20z m2744 -42 c-5 -18
-9 -52 -9 -75 0 -42 0 -43 -35 -43 l-35 0 0 75 0 75 44 0 45 0 -10 -32z m-238
-229 c16 -16 19 -28 14 -47 -4 -15 -9 -48 -12 -74 -5 -47 -6 -48 -38 -48 -37
0 -44 11 -38 56 3 17 0 35 -6 38 -29 18 3 96 40 96 10 0 28 -9 40 -21z m-3339
-89 c-18 -73 -20 -76 -28 -67 -3 3 2 37 12 76 10 39 22 67 26 63 4 -4 0 -36
-10 -72z m1434 69 c3 -6 2 -15 -2 -19 -12 -12 -38 5 -30 19 9 14 23 14 32 0z
m2162 -42 c3 -23 0 -27 -23 -27 -30 0 -43 24 -25 46 19 22 45 13 48 -19z
m-938 -128 c0 -116 -3 -150 -12 -147 -9 3 -14 42 -16 138 -3 135 -1 160 18
160 6 0 10 -54 10 -151z m1348 105 c12 -8 22 -19 22 -25 0 -5 -45 -9 -104 -9
-79 0 -105 3 -109 14 -10 26 16 36 93 36 52 0 82 -5 98 -16z m-398 -400 c0
-226 -4 -362 -10 -375 -13 -23 -55 -25 -64 -3 -3 9 -6 177 -6 375 l0 359 40 0
40 0 0 -356z m-1143 274 c65 -69 103 -176 103 -290 0 -84 -1 -88 -22 -88 -13
0 -39 -20 -69 -52 -47 -54 -72 -59 -51 -13 7 14 12 48 12 75 l0 50 34 0 c37 0
51 18 40 54 -8 25 -22 36 -49 36 -16 0 -20 8 -22 40 -3 39 -2 40 32 40 24 0
35 5 35 15 0 8 -6 13 -12 11 -61 -19 -65 -17 -98 34 -18 29 -29 55 -24 62 11
20 47 58 54 58 3 0 20 -15 37 -32z m-2129 3 c23 -17 50 -20 197 -24 105 -3
190 -11 222 -20 116 -33 226 -97 326 -191 53 -48 58 -56 47 -75 -11 -21 -12
-20 -60 21 -95 82 -245 159 -376 193 -33 8 -117 18 -189 21 -136 7 -172 17
-199 56 -30 42 -14 51 32 19z m3012 -40 c27 -51 1 -77 -66 -69 -23 2 -30 9
-32 31 -5 46 4 57 47 57 30 0 43 -5 51 -19z m-242 -43 c18 -18 15 -24 -18 -38
-36 -15 -60 -7 -60 19 0 30 54 43 78 19z m-1702 -9 c3 -6 2 -15 -4 -21 -6 -6
-12 -6 -16 1 -4 6 -1 11 6 12 7 0 4 4 -7 9 -16 7 -17 9 -3 9 9 1 20 -4 24 -10z
m540 -44 c53 -10 92 -24 119 -44 22 -15 58 -34 80 -41 65 -20 120 -56 169
-111 78 -87 83 -156 18 -250 -49 -70 -105 -102 -178 -101 -98 1 -91 -16 -96
223 l-4 210 -30 29 c-41 41 -132 54 -349 47 -285 -8 -285 -8 -285 -293 l0
-192 -30 -12 c-84 -35 -196 7 -237 90 -30 57 -30 129 -2 187 35 73 169 173
231 173 18 0 40 13 66 39 27 27 51 42 78 46 21 3 46 8 54 10 49 10 327 3 396
-10z m1562 -201 c2 -154 0 -193 -12 -203 -9 -8 -72 -11 -212 -9 l-199 3 -3
189 c-2 132 1 193 9 202 10 12 50 14 213 12 l201 -3 3 -191z m-2804 180 c30
-11 16 -26 -21 -22 -35 3 -39 0 -53 -30 -10 -23 -23 -35 -42 -39 -15 -3 -35
-14 -44 -24 -10 -11 -35 -22 -56 -25 -40 -7 -108 -69 -108 -100 0 -10 -6 -14
-17 -10 -10 2 -33 7 -50 11 -38 8 -37 5 -17 53 13 33 16 35 25 19 10 -16 15
-14 59 27 27 25 56 46 65 46 12 0 15 6 10 20 -5 15 -2 20 12 20 11 0 23 -4 29
-9 5 -6 29 -7 53 -4 37 5 45 10 57 39 12 29 19 34 48 34 19 0 41 -3 50 -6z
m3130 -20 c13 -12 16 -40 16 -135 0 -102 -2 -120 -17 -130 -15 -9 -17 -23 -15
-89 3 -70 1 -80 -19 -99 -17 -15 -36 -21 -70 -21 -79 0 -79 -1 -79 249 0 155
3 220 12 229 19 19 153 16 172 -4z m-1862 -63 c35 -13 40 -40 36 -211 l-3
-135 -280 0 -280 0 0 157 c0 187 0 188 102 199 91 10 391 3 425 -10z m398 -26
c15 -18 6 -45 -14 -45 -14 0 -26 21 -26 46 0 18 24 18 40 -1z m130 -20 c0 -10
-10 -15 -30 -15 -20 0 -30 5 -30 15 0 10 10 15 30 15 20 0 30 -5 30 -15z
m-2740 -59 c-8 -8 -15 -6 -26 8 -19 27 -18 34 9 38 25 3 37 -26 17 -46z m886
26 c36 -19 83 -80 90 -117 21 -114 -79 -217 -194 -200 -38 6 -44 4 -49 -14 -7
-27 -11 -26 -44 5 -31 30 -45 26 -94 -25 l-29 -32 19 -36 c11 -19 30 -42 42
-50 13 -9 23 -22 23 -29 0 -8 3 -14 8 -15 4 0 15 -2 25 -4 9 -2 14 1 11 6 -3
6 0 17 7 25 10 13 4 22 -37 58 -43 38 -47 45 -35 60 19 22 28 20 68 -14 39
-35 53 -38 53 -11 0 16 7 19 53 17 l52 -1 5 -50 5 -51 59 64 c45 47 56 66 48
74 -15 15 -16 31 -2 23 20 -12 40 -76 30 -95 -7 -13 -4 -23 14 -39 l24 -22 15
21 c10 14 17 18 22 10 10 -17 -41 -77 -92 -107 -45 -26 -47 -26 -76 -10 -16
10 -32 15 -35 12 -3 -3 0 -5 6 -5 7 0 12 -5 12 -10 0 -6 -10 -8 -24 -4 -16 4
-25 1 -30 -12 -5 -13 -14 -15 -48 -10 -23 4 -62 16 -87 27 -40 17 -46 18 -53
4 -15 -25 -36 -18 -35 13 1 15 5 30 9 33 5 3 -3 16 -17 29 -22 21 -29 22 -46
12 -11 -7 -23 -10 -28 -8 -4 3 -23 35 -42 72 -29 58 -35 80 -38 151 -3 85 2
137 18 161 6 11 21 11 74 2 l67 -12 0 -42 c0 -23 7 -51 16 -62 15 -18 15 -18
5 3 -15 31 -14 89 3 121 48 91 166 130 252 84z m2284 -172 c0 -171 -2 -200
-15 -200 -13 0 -15 29 -15 200 0 171 2 200 15 200 13 0 15 -29 15 -200z m-75
155 c0 -43 -29 -40 -33 3 -3 28 0 33 15 30 13 -2 18 -12 18 -33z m-3205 -19
c0 -18 7 -39 15 -46 19 -16 4 -36 -19 -27 -12 5 -16 20 -16 57 0 27 5 50 10
50 6 0 10 -15 10 -34z m2954 -51 c10 -8 16 -21 13 -29 -3 -8 3 -32 14 -53 23
-44 19 -76 -17 -142 -13 -24 -24 -54 -24 -67 0 -24 1 -24 114 -24 63 0 121 -3
130 -6 10 -4 16 -18 16 -40 l0 -34 -153 0 c-106 0 -157 -4 -165 -12 -8 -8 -12
-47 -12 -110 0 -79 4 -107 20 -138 26 -51 30 -210 5 -210 -12 0 -15 17 -15 89
0 65 -4 92 -14 101 -8 6 -23 33 -32 58 -10 26 -25 56 -35 67 -14 16 -17 34
-14 87 3 38 9 77 16 89 7 15 9 59 4 146 l-7 125 58 58 c33 32 64 59 69 59 6 0
18 -6 29 -14z m-203 -381 c22 -24 19 -58 -6 -67 -17 -7 -41 18 -25 28 19 12 0
25 -21 14 -18 -9 -19 -12 -6 -27 29 -33 75 -139 87 -197 7 -33 16 -78 21 -100
11 -52 12 -392 1 -399 -5 -3 -12 92 -16 210 -8 239 -21 307 -75 382 -33 44
-105 92 -140 92 -14 0 -29 12 -42 35 -14 23 -32 38 -57 45 -56 17 -533 24
-701 11 -150 -12 -187 -22 -205 -56 -16 -30 -27 -35 -74 -35 -59 0 -103 -21
-140 -66 -40 -49 -42 -24 -3 38 56 88 140 132 282 148 73 8 102 16 131 36 30
21 40 24 57 14 12 -6 21 -14 21 -18 0 -4 82 -6 183 -4 201 5 409 -9 502 -33
33 -9 78 -28 100 -43 l40 -27 24 23 c21 19 24 30 22 85 -1 35 1 77 6 93 6 21
9 4 11 -66 2 -79 6 -98 23 -116z m439 176 c3 -14 4 -35 2 -48 -4 -22 -8 -23
-76 -20 l-71 3 -3 33 c-6 58 0 63 75 60 62 -3 68 -5 73 -28z m650 -20 c0 -5 1
-13 3 -17 1 -5 -52 -10 -118 -13 l-120 -5 -3 -34 c-3 -33 -2 -34 26 -28 40 8
60 -13 44 -48 -10 -21 -18 -25 -56 -25 -25 0 -47 4 -50 9 -3 5 -83 8 -178 8
l-173 -1 -3 27 c-3 24 0 27 27 27 17 0 31 -4 31 -10 0 -6 41 -10 104 -10 59 0
108 4 111 10 3 6 26 10 49 10 41 0 43 1 38 25 -2 14 3 36 12 50 15 23 22 25
124 28 59 1 113 4 120 5 6 1 12 -2 12 -8z m100 -125 c0 -31 -26 -43 -47 -22
-21 21 -9 47 22 47 20 0 25 -5 25 -25z m190 15 c0 -6 -27 -10 -60 -10 -33 0
-60 4 -60 10 0 6 27 10 60 10 33 0 60 -4 60 -10z m-2392 -82 c-6 -16 -148 -24
-148 -9 0 6 28 12 63 14 34 2 68 4 75 5 8 1 12 -4 10 -10z m538 1 c3 -6 2 -14
-2 -19 -11 -10 -460 -17 -470 -8 -3 4 -4 14 -1 23 6 13 38 15 236 15 155 0
232 -4 237 -11z m202 5 c47 -13 19 -24 -62 -24 -88 0 -120 6 -110 21 6 10 137
12 172 3z m110 -106 c11 -15 22 -278 10 -278 -4 0 -10 5 -14 11 -3 6 -30 22
-58 35 l-51 24 -450 0 c-289 0 -464 -4 -489 -11 -21 -6 -58 -29 -82 -51 l-44
-41 0 146 c0 119 3 148 16 161 14 14 80 16 583 16 443 0 571 -3 579 -12z m377
-78 c0 -18 -6 -26 -23 -28 -13 -2 -25 3 -28 12 -10 26 4 48 28 44 17 -2 23
-10 23 -28z m-1719 -15 c-4 -14 -2 -25 4 -25 18 0 11 -21 -22 -67 -28 -38 -34
-57 -38 -114 l-5 -69 -32 22 c-28 20 -33 29 -33 66 0 60 21 104 68 142 23 18
41 35 40 39 -2 18 3 31 13 31 7 0 9 -10 5 -25z m1451 -1 c13 -21 17 -57 20
-193 l4 -166 -36 74 c-34 72 -35 77 -35 192 0 98 3 119 15 119 8 0 22 -12 32
-26z m-1339 -121 c-3 -122 -7 -144 -28 -188 l-25 -50 -3 175 c-2 156 -1 176
15 187 41 31 45 21 41 -124z m-494 14 c16 -26 -27 -62 -55 -47 -19 10 -26 50
-12 64 13 12 56 2 67 -17z m405 -299 c0 -49 -3 -88 -8 -88 -10 0 -20 347 -11
365 6 12 17 -153 19 -277z m1731 217 c0 -37 -4 -65 -10 -65 -6 0 -10 28 -10
65 0 37 4 65 10 65 6 0 10 -28 10 -65z m-665 -66 c189 -25 306 -132 334 -309
14 -86 14 -397 0 -477 -9 -52 -17 -68 -39 -85 -16 -11 -32 -30 -35 -42 -7 -21
-8 -21 -12 2 -2 12 3 53 13 90 37 148 31 496 -11 595 -23 56 -89 122 -145 146
-81 35 -186 43 -502 39 -253 -4 -300 -7 -343 -23 -63 -23 -146 -105 -163 -160
-23 -74 -34 -263 -27 -462 6 -181 6 -192 -12 -201 -44 -24 -45 -12 -41 309 4
248 8 313 21 355 33 99 107 173 212 209 95 33 541 41 750 14z m-1171 -50 c22
-18 26 -28 26 -76 0 -61 -18 -70 -32 -16 -7 29 -55 63 -87 63 -17 0 -33 37
-18 43 30 13 86 6 111 -14z m1199 -73 c92 -28 153 -101 172 -207 6 -31 3 -39
-19 -57 -23 -17 -26 -28 -26 -77 0 -31 4 -64 9 -73 5 -9 12 -57 16 -105 l7
-88 -40 -37 c-27 -25 -44 -52 -52 -82 -18 -70 -57 -128 -110 -166 -27 -19 -52
-44 -55 -56 -4 -11 -5 -58 -3 -105 2 -71 0 -88 -13 -96 -34 -22 -49 -2 -49 66
l0 64 -82 6 c-46 4 -113 7 -150 7 l-67 0 -72 60 c-64 53 -76 60 -116 60 -86 0
-142 42 -188 142 -46 101 -58 184 -52 368 6 187 21 251 69 306 52 59 99 77
218 85 171 11 547 2 603 -15z m1985 -13 c-4 -53 4 -75 46 -118 24 -25 39 -48
35 -51 -12 -7 -55 23 -74 52 -8 13 -22 24 -30 24 -11 0 -15 13 -15 55 0 48 2
55 20 55 13 0 19 -6 18 -17z m-3363 -27 c38 -16 75 -68 75 -104 0 -22 4 -23
53 -20 56 3 59 8 42 71 -6 23 -4 27 14 27 19 0 21 -6 21 -52 0 -71 -17 -88
-88 -88 -43 0 -60 -5 -84 -25 -22 -19 -41 -25 -75 -25 -38 0 -50 5 -79 34 -28
28 -34 41 -34 78 0 51 21 85 64 104 40 17 49 17 91 0z m1997 -68 c-2 -64 0
-77 18 -93 29 -27 25 -34 -17 -28 -57 9 -63 18 -63 94 0 57 3 71 22 89 35 32
43 20 40 -62z m1276 -60 l3 -28 -119 0 c-101 0 -121 2 -126 16 -14 36 12 45
128 42 l111 -3 3 -27z m-3558 -3 c41 -21 60 -53 60 -101 0 -36 -5 -47 -37 -74
-33 -29 -41 -32 -87 -27 -102 9 -143 112 -72 183 38 38 86 45 136 19z m588
-277 l2 -288 -29 0 -30 0 -3 278 c-2 157 1 283 6 290 5 7 19 12 30 10 21 -3
21 -8 24 -290z m1520 -8 c1 -135 0 -255 -3 -268 -4 -17 -12 -22 -28 -20 l-22
3 -3 268 -2 268 27 -3 28 -3 3 -245z m-1949 123 c18 -35 12 -123 -8 -123 -4 0
-6 24 -3 53 4 46 1 57 -22 84 -14 17 -26 38 -26 48 0 12 6 9 24 -12 12 -15 28
-38 35 -50z m2154 45 c10 -18 11 -70 7 -230 -5 -218 -11 -245 -48 -222 -15 10
-17 36 -20 243 l-2 231 25 0 c15 0 30 -9 38 -22z m-425 -65 c-3 -54 -5 -58
-28 -58 -22 0 -25 5 -28 44 -4 57 2 71 33 71 25 0 26 -2 23 -57z m327 -83 l0
-135 -32 -3 -33 -3 0 141 0 141 33 -3 32 -3 0 -135z m-2095 38 c0 -26 -4 -38
-14 -38 -20 0 -29 35 -21 78 6 35 8 36 21 17 8 -10 14 -36 14 -57z m350 -99
l0 -170 -22 3 c-23 3 -23 6 -26 158 -1 85 0 160 2 167 3 7 15 13 26 13 19 0
20 -6 20 -171z m2010 147 c18 -23 8 -61 -17 -64 -17 -3 -24 3 -29 22 -12 48
18 75 46 42z m-80 -42 c0 -47 -13 -55 -34 -22 -7 11 -6 24 2 42 18 40 32 31
32 -20z m875 35 c4 -5 -140 -9 -375 -9 -257 0 -379 3 -375 10 8 14 742 13 750
-1z m-135 -49 c0 -6 -103 -10 -292 -9 -161 1 -279 5 -263 9 47 12 555 12 555
0z m638 -42 c-3 -9 -30 -14 -76 -16 -60 -2 -72 0 -72 13 0 12 14 15 76 15 56
0 75 -3 72 -12z m-640 -90 c-3 -22 -7 -23 -103 -23 -96 0 -100 1 -103 23 -3
22 -2 22 103 22 105 0 106 0 103 -22z m-2678 -178 c0 -5 -9 -10 -20 -10 -11 0
-20 5 -20 10 0 6 9 10 20 10 11 0 20 -4 20 -10z m1365 -178 l0 -164 -33 -29
c-56 -50 -133 -36 -167 31 -18 35 -20 101 -3 118 14 14 47 15 66 3 20 -12 21
-75 2 -77 -35 -3 -40 -4 -40 -14 0 -5 20 -10 44 -10 68 0 76 18 76 165 0 123
7 149 40 143 13 -3 15 -28 15 -166z m1341 133 c40 -43 47 -74 42 -203 -3 -111
-14 -136 -78 -179 -30 -21 -45 -23 -152 -23 -140 0 -160 7 -218 81 -38 49 -40
54 -42 127 -2 106 1 122 23 159 40 65 66 73 238 73 l154 0 33 -35z m-786 4 c0
-5 -4 -7 -10 -4 -5 3 -10 1 -10 -4 0 -6 5 -11 10 -11 6 0 10 -7 10 -15 0 -8
-9 -15 -20 -15 -20 0 -25 15 -14 44 7 18 34 22 34 5z m-2440 -8 c0 -5 -9 -7
-20 -4 -11 3 -20 7 -20 9 0 2 9 4 20 4 11 0 20 -4 20 -9z m45 -1 c-3 -5 -10
-10 -16 -10 -5 0 -9 5 -9 10 0 6 7 10 16 10 8 0 12 -4 9 -10z m-47 -96 c2 -68
0 -83 -16 -97 -11 -10 -26 -15 -36 -11 -25 9 -24 169 2 183 38 23 47 10 50
-75z m140 -11 c3 -65 5 -73 22 -73 27 0 25 -20 -1 -27 -18 -5 -21 -11 -16 -44
3 -26 2 -37 -6 -32 -5 3 -24 9 -40 12 l-30 6 1 115 c1 63 1 116 2 118 0 2 15
2 33 0 l32 -3 3 -72z m2191 53 c8 -10 8 -16 -2 -24 -17 -14 -42 2 -34 22 8 20
21 20 36 2z m-1445 -37 c14 -11 33 -34 41 -49 20 -39 20 -96 -1 -104 -27 -10
-71 -7 -82 7 -8 10 -17 111 -13 155 2 18 25 15 55 -9z m-135 -78 c1 -43 35
-97 71 -116 19 -10 58 -15 110 -15 l80 0 0 -40 c0 -37 -2 -40 -27 -40 -87 1
-183 51 -222 114 -25 40 -47 148 -35 174 6 14 8 12 14 -13 4 -16 8 -45 9 -64z
m-109 54 c15 -18 5 -35 -21 -35 -24 0 -37 29 -18 41 19 12 25 11 39 -6z m511
-96 c16 -17 29 -35 29 -40 0 -12 -27 -11 -35 1 -3 6 -26 10 -51 10 -31 0 -50
6 -64 20 -32 32 -24 40 36 40 50 0 59 -3 85 -31z m1449 24 c-1 -15 -58 -191
-69 -212 -7 -11 -16 -21 -21 -21 -5 0 10 54 32 120 22 66 44 120 49 120 5 0 9
-3 9 -7z m-2496 -122 c28 -31 11 -41 -70 -41 -57 0 -74 3 -74 14 0 46 109 66
144 27z m1042 -18 c10 -39 -7 -58 -52 -58 -39 0 -39 0 -42 43 l-3 42 45 0 c41
0 46 -3 52 -27z m149 -3 c0 -11 -13 -16 -47 -18 -43 -3 -48 -1 -48 18 0 19 5
21 48 18 34 -2 47 -7 47 -18z m120 0 c0 -24 -79 -21 -83 3 -3 16 2 18 40 15
30 -2 43 -7 43 -18z m113 -2 c3 -14 -3 -18 -27 -18 -31 0 -47 13 -36 31 11 16
59 6 63 -13z m2070 0 c-6 -18 -28 -21 -28 -4 0 9 7 16 16 16 9 0 14 -5 12 -12z
m0 -126 c2 -77 0 -92 -13 -92 -12 0 -15 16 -15 96 0 72 3 95 13 92 8 -3 13
-34 15 -96z m-3468 64 c0 -7 -3 -28 -6 -45 l-6 -31 -79 0 -79 0 0 45 0 45 85
0 c65 0 85 -3 85 -14z m127 -92 c3 -8 -2 -23 -11 -32 -15 -15 -17 -15 -32 0
-21 21 -11 48 16 48 11 0 23 -7 27 -16z m-142 -4 c13 -21 -46 -100 -75 -100
-24 0 -59 41 -66 78 l-6 32 70 0 c39 0 74 -4 77 -10z m70 -61 c0 -7 -8 -15
-17 -17 -18 -3 -25 18 -11 32 10 10 28 1 28 -15z m2325 -109 c33 -24 66 -88
52 -102 -6 -6 -14 3 -23 23 -7 18 -26 48 -42 66 -33 37 -28 42 13 13z m151 -6
c9 -11 10 -20 2 -32 -14 -22 -53 -22 -67 1 -9 15 -7 21 8 33 25 18 40 18 57
-2z m1169 -114 c0 -71 -3 -90 -14 -90 -18 0 -22 16 -31 97 -8 69 -3 83 26 83
17 0 19 -8 19 -90z m-3290 69 c0 -6 -14 -27 -31 -47 -33 -37 -59 -90 -59 -118
0 -10 7 -26 17 -36 16 -18 5 -26 -12 -9 -6 5 -21 11 -35 13 -31 4 -30 31 5
104 30 60 115 130 115 93z m2994 -50 c21 -25 26 -40 24 -82 -1 -50 -2 -50 -5
-10 -5 48 -44 98 -85 108 -37 9 -94 -19 -118 -57 -47 -74 8 -174 91 -166 22 2
39 0 39 -4 0 -15 -82 -8 -111 9 -16 9 -35 34 -44 56 -22 56 -11 99 36 142 35
31 45 35 93 35 48 0 57 -3 80 -31z m-3146 -41 c-2 -13 -11 -24 -20 -26 -21 -4
-24 18 -6 36 19 19 30 14 26 -10z m3109 -10 c47 -44 21 -122 -44 -134 -33 -6
-40 -3 -65 25 -34 39 -36 74 -3 106 31 32 80 33 112 3z m-3174 -43 c-3 -13
-30 -18 -51 -10 -14 5 -14 7 -2 16 19 11 56 8 53 -6z m1840 -56 c-6 -6 -18 -6
-28 -3 -18 7 -18 8 1 14 23 9 39 1 27 -11z m-1775 -20 c72 -36 134 -101 170
-179 37 -80 37 -192 0 -272 -37 -79 -110 -150 -177 -173 -118 -39 -271 0 -347
89 -83 97 -105 258 -50 371 84 170 254 239 404 164z m3132 -12 l-34 -32 30 36
c16 20 31 34 33 32 3 -2 -10 -18 -29 -36z m-2610 -537 c0 -306 -1 -320 -19
-320 -28 0 -31 33 -31 332 0 269 4 308 35 308 13 0 15 -46 15 -320z"/>
<path d="M1030 4985 c-18 -21 -5 -31 15 -12 13 13 43 15 200 13 102 -2 185 1
185 5 0 5 -87 9 -194 9 -161 0 -196 -3 -206 -15z"/>
<path d="M1074 4922 c-36 -4 -44 -19 -44 -94 l0 -48 235 0 c202 0 235 2 235
15 0 12 -19 15 -115 15 -63 0 -115 4 -115 9 0 16 30 21 132 21 75 0 99 3 96
13 -3 8 -36 12 -113 12 -74 1 -110 4 -112 12 -6 16 25 22 117 25 44 2 74 7 72
13 -2 9 -310 15 -388 7z"/>
<path d="M1992 4444 c1 -9 9 -19 16 -22 9 -3 13 2 10 14 -1 9 -9 19 -16 22 -9
3 -13 -2 -10 -14z"/>
<path d="M1950 4405 c7 -8 17 -15 22 -15 6 0 5 7 -2 15 -7 8 -17 15 -22 15 -6
0 -5 -7 2 -15z"/>
<path d="M4003 4693 c-22 -8 -16 -60 7 -66 17 -4 20 0 20 34 0 39 -3 42 -27
32z"/>
<path d="M4260 4550 c0 -5 6 -10 14 -10 8 0 18 5 21 10 3 6 -3 10 -14 10 -12
0 -21 -4 -21 -10z"/>
<path d="M3970 4505 c0 -8 7 -15 15 -15 8 0 15 7 15 15 0 8 -7 15 -15 15 -8 0
-15 -7 -15 -15z"/>
<path d="M4020 4506 c0 -10 9 -16 21 -16 24 0 21 23 -4 28 -10 2 -17 -3 -17
-12z"/>
<path d="M1905 4191 c-27 -11 -51 -40 -65 -75 -15 -39 2 -88 43 -122 43 -37
109 -30 149 15 78 87 -19 226 -127 182z m73 -67 c36 -25 24 -84 -18 -84 -28 0
-40 20 -28 46 14 31 1 45 -18 20 -8 -11 -14 -16 -14 -11 0 13 32 45 44 45 6 0
22 -7 34 -16z"/>
<path d="M2844 4156 c-27 -27 -34 -42 -34 -74 0 -82 82 -134 157 -98 66 32 77
118 23 176 -23 24 -36 30 -70 30 -34 0 -48 -6 -76 -34z m104 -38 c7 -7 12 -21
12 -33 0 -12 -5 -26 -12 -33 -7 -7 -21 -12 -33 -12 -12 0 -26 5 -33 12 -7 7
-12 21 -12 33 0 12 5 26 12 33 7 7 21 12 33 12 12 0 26 -5 33 -12z"/>
<path d="M3942 4354 c-34 -24 -45 -59 -28 -92 7 -15 11 -42 9 -60 -9 -54 40
-90 95 -71 28 9 52 44 52 73 0 21 -34 46 -63 46 -18 0 -25 4 -21 14 3 8 21 14
46 14 50 1 64 13 47 40 -30 47 -96 65 -137 36z m96 -16 c7 -7 12 -20 12 -30 0
-27 -40 -23 -65 7 -14 18 -24 22 -35 16 -12 -8 -12 -12 3 -29 21 -24 22 -38 0
-46 -32 -13 -45 44 -16 76 19 21 82 25 101 6z m0 -140 c4 -20 -24 -48 -48 -48
-22 0 -50 25 -50 45 0 9 14 15 38 18 50 5 56 3 60 -15z"/>
<path d="M4468 4303 l-3 -58 -37 -3 c-36 -3 -38 -5 -38 -38 l0 -35 58 3 57 3
0 90 c0 76 -3 90 -17 93 -14 3 -17 -6 -20 -55z"/>
<path d="M4390 4320 c0 -23 4 -30 20 -30 16 0 20 7 20 30 0 23 -4 30 -20 30
-16 0 -20 -7 -20 -30z"/>
<path d="M4408 4052 c-10 -2 -18 -12 -18 -23 0 -17 6 -20 38 -17 23 2 37 8 37
17 0 16 -32 29 -57 23z"/>
<path d="M4397 3984 c-19 -20 -5 -34 34 -34 33 0 40 3 37 18 -3 17 -57 30 -71
16z"/>
<path d="M1193 4210 c-43 -26 -63 -68 -63 -131 0 -41 6 -60 26 -86 14 -19 28
-32 31 -29 3 3 -4 17 -16 32 -20 25 -28 54 -15 54 3 0 16 -13 30 -29 76 -91
214 -40 214 78 0 104 -116 167 -207 111z"/>
<path d="M966 4108 c-7 -29 -8 -133 0 -140 3 -3 22 1 43 9 l38 15 -2 66 -2 67
-35 3 c-30 3 -36 -1 -42 -20z"/>
<path d="M1038 3967 c-26 -18 -50 -40 -53 -49 -5 -15 29 -98 41 -98 2 0 0 9
-6 19 -19 37 -11 59 40 102 27 23 47 46 44 50 -8 13 -15 11 -66 -24z"/>
<path d="M1394 3775 c-13 -20 -14 -28 -4 -40 15 -18 39 -19 63 -1 22 17 22 29
-1 49 -25 23 -39 21 -58 -8z"/>
<path d="M1186 3732 c-7 -12 8 -17 72 -27 34 -6 42 -4 42 9 0 10 -9 16 -24 16
-13 0 -37 3 -54 6 -16 3 -32 1 -36 -4z"/>
<path d="M3205 4075 c-50 -49 -20 -125 48 -125 43 0 67 26 67 71 0 75 -65 105
-115 54z m55 -48 c0 -8 -3 -17 -7 -20 -9 -9 -34 13 -27 24 8 14 34 11 34 -4z"/>
<path d="M3447 3963 c-4 -3 -7 -15 -7 -25 0 -14 8 -18 34 -18 39 0 53 14 36
35 -13 15 -51 20 -63 8z"/>
<path d="M1992 2800 c-46 -29 -72 -76 -72 -134 0 -44 4 -53 44 -92 39 -39 48
-44 90 -44 59 0 98 20 125 63 58 94 -12 227 -119 227 -19 0 -50 -9 -68 -20z
m101 -41 c35 -18 57 -51 57 -87 0 -45 -46 -92 -90 -92 -44 0 -90 47 -90 92 0
70 65 116 123 87z"/>
<path d="M2620 2761 c-79 -78 -32 -201 77 -201 38 0 50 5 79 34 26 26 34 42
34 70 0 76 -47 126 -118 126 -35 0 -49 -6 -72 -29z"/>
<path d="M1284 3112 c-78 -12 -76 -137 2 -156 28 -7 79 16 88 39 9 24 7 64 -4
85 -11 21 -55 37 -86 32z m33 -78 c-9 -9 -28 6 -21 18 4 6 10 6 17 -1 6 -6 8
-13 4 -17z"/>
<path d="M3923 2386 l-28 -24 0 -137 c0 -170 -5 -165 146 -165 104 0 108 1
128 26 19 24 21 40 21 149 0 109 -2 125 -21 149 -20 25 -24 26 -119 26 -90 0
-101 -2 -127 -24z m207 -56 c0 -6 -36 -10 -87 -10 -61 0 -83 3 -73 10 20 13
160 13 160 0z m0 -60 c0 -6 -35 -10 -86 -10 -54 0 -83 4 -79 10 3 6 42 10 86
10 46 0 79 -4 79 -10z m-5 -60 c4 -6 -25 -10 -82 -9 -59 1 -80 4 -63 9 36 12
138 12 145 0z m5 -70 c0 -6 -35 -10 -85 -10 -50 0 -85 4 -85 10 0 6 35 10 85
10 50 0 85 -4 85 -10z"/>
<path d="M4416 1588 c-42 -24 -40 -75 5 -98 40 -22 86 30 68 77 -8 23 -49 35
-73 21z"/>
<path d="M1186 1435 c-53 -19 -106 -63 -141 -120 -23 -38 -30 -62 -33 -116 -4
-59 0 -77 23 -124 26 -55 83 -110 138 -133 38 -16 145 -14 182 4 17 8 21 11
10 8 -11 -4 -48 -9 -83 -12 -85 -6 -139 15 -195 78 -126 140 -66 350 117 410
72 23 170 -6 235 -71 96 -95 106 -243 23 -341 -22 -26 -23 -29 -5 -17 36 22
65 86 71 155 4 57 1 71 -27 129 -65 131 -195 193 -315 150z"/>
<path d="M1205 1326 c-116 -53 -133 -203 -32 -280 49 -37 102 -42 156 -14 73
38 106 103 90 177 -21 96 -131 156 -214 117z"/>
<path d="M2180 5068 c-43 -75 -45 -91 -20 -143 41 -84 119 -114 202 -78 90 40
149 118 133 175 -14 51 -39 98 -51 98 -9 0 -5 -12 11 -36 65 -96 -12 -216
-129 -201 -58 8 -88 43 -94 109 -3 45 0 59 22 91 l25 37 -34 0 c-31 0 -38 -5
-65 -52z"/>
<path d="M3228 5113 c26 -10 10 -23 -28 -23 -53 0 -51 -18 3 -22 48 -3 55 -20
11 -28 l-29 -6 29 -7 c39 -11 48 2 40 51 -5 30 -11 42 -23 41 -10 0 -11 -2 -3
-6z"/>
<path d="M3850 4945 c0 -149 2 -175 15 -175 13 0 15 26 15 175 0 149 -2 175
-15 175 -13 0 -15 -26 -15 -175z"/>
<path d="M4547 5109 c7 -7 29 -15 49 -18 21 -3 39 -11 41 -18 7 -19 -34 -25
-66 -9 -52 27 -89 21 -132 -23 -34 -34 -39 -44 -39 -86 0 -59 28 -107 75 -129
28 -13 59 -16 148 -14 l113 3 57 -42 c64 -49 75 -50 230 -31 l97 12 0 48 c0
33 -4 48 -13 48 -8 0 -24 23 -37 51 -13 28 -27 52 -31 55 -13 7 -113 -16 -121
-29 -4 -6 -8 -22 -8 -34 0 -31 -18 -75 -29 -69 -4 3 -4 28 2 56 7 37 7 54 -1
62 -16 16 -22 7 -36 -54 -7 -35 -17 -53 -26 -53 -16 0 -16 6 -4 85 6 44 5 45
-27 58 -46 17 -72 38 -64 51 4 7 19 5 43 -8 50 -25 95 -34 168 -33 70 1 123
17 107 33 -6 6 -19 6 -37 -1 -79 -30 -242 4 -313 65 -37 31 -47 35 -99 35 -44
0 -55 -3 -47 -11z m55 -88 c28 -25 33 -36 33 -76 0 -39 -5 -51 -28 -71 -42
-36 -99 -33 -139 6 -28 28 -30 36 -25 78 10 89 93 122 159 63z"/>
<path d="M4502 4990 c-27 -25 -28 -61 -4 -83 39 -36 92 -7 92 49 0 54 -47 72
-88 34z m48 -10 c0 -5 -4 -10 -10 -10 -5 0 -10 5 -10 10 0 6 5 10 10 10 6 0
10 -4 10 -10z"/>
<path d="M4767 5113 c-31 -30 56 -68 153 -67 50 0 78 7 120 28 85 42 83 46
-18 46 -81 0 -92 -2 -92 -17 0 -10 -5 -25 -11 -33 -8 -12 -9 -7 -6 18 3 26 0
32 -14 32 -12 0 -16 -5 -13 -15 4 -10 0 -15 -10 -15 -9 0 -19 7 -22 15 -6 15
-74 22 -87 8z"/>
<path d="M2534 5085 c-18 -28 -12 -79 14 -107 14 -16 39 -18 249 -18 l233 0 0
44 0 44 -60 4 c-48 3 -66 10 -88 31 -28 27 -29 27 -180 27 -150 0 -152 0 -168
-25z"/>
<path d="M2314 5055 c-29 -29 -26 -58 8 -88 24 -20 55 -15 81 15 23 27 22 44
-8 73 -31 32 -50 31 -81 0z m54 -32 c-4 -22 -22 -20 -26 1 -2 10 3 16 13 16
10 0 15 -7 13 -17z"/>
<path d="M5103 5073 c-17 -6 -16 -32 2 -63 14 -24 14 -24 15 23 0 26 -1 47 -2
46 -2 0 -9 -3 -15 -6z"/>
<path d="M3117 5044 c-11 -12 3 -24 28 -24 13 0 27 5 30 10 3 6 0 10 -9 10 -8
0 -21 2 -28 5 -8 3 -17 3 -21 -1z"/>
<path d="M189 4992 c-93 -59 -139 -143 -139 -252 0 -37 7 -87 15 -111 16 -46
60 -109 75 -109 6 0 -5 20 -23 44 -66 86 -74 208 -21 306 32 60 96 119 137
127 32 7 46 23 20 23 -11 0 -39 -13 -64 -28z"/>
<path d="M493 4918 c55 -70 69 -110 70 -208 0 -82 1 -83 10 -37 18 90 -16 198
-80 258 l-37 34 37 -47z"/>
<path d="M5080 4953 c1 -4 10 -24 20 -43 l20 -35 -2 40 c-2 29 -8 41 -20 43
-10 2 -18 0 -18 -5z"/>
<path d="M285 4938 c-84 -18 -154 -107 -155 -196 -1 -182 245 -262 357 -116
21 29 28 50 31 100 8 117 -55 200 -163 216 -16 3 -48 1 -70 -4z m122 -103 c32
-32 35 -40 30 -73 -12 -70 -80 -102 -147 -67 -89 46 -49 173 54 175 19 0 39
-11 63 -35z m-220 -39 c-9 -63 7 -109 53 -150 34 -31 47 -36 88 -36 114 0 180
94 138 195 -19 44 -12 45 14 3 58 -95 -13 -216 -133 -226 -121 -10 -215 93
-186 203 12 44 17 55 26 55 3 0 3 -20 0 -44z"/>
<path d="M290 4820 c-27 -27 -25 -66 5 -95 30 -30 54 -31 89 -4 50 40 21 119
-44 119 -17 0 -39 -9 -50 -20z"/>
<path d="M1881 4761 c3 -8 20 -26 39 -40 19 -15 31 -20 29 -12 -3 8 -20 26
-39 40 -19 15 -31 20 -29 12z"/>
<path d="M5053 4688 c-28 -13 -28 -20 -4 -42 29 -27 71 -12 71 25 0 24 -4 29
-22 28 -13 0 -33 -5 -45 -11z"/>
<path d="M4995 4661 c-3 -6 2 -22 13 -36 16 -20 22 -22 31 -12 8 11 5 19 -13
36 -15 15 -26 19 -31 12z"/>
<path d="M4944 4613 c-91 -98 -95 -242 -9 -336 40 -44 105 -76 153 -77 30 0
32 2 32 34 0 32 -3 35 -38 41 -52 8 -98 38 -123 77 -32 51 -23 143 19 203 l32
45 -20 20 -20 20 -26 -27z"/>
<path d="M500 4556 c0 -8 5 -18 10 -21 6 -3 10 3 10 14 0 12 -4 21 -10 21 -5
0 -10 -6 -10 -14z"/>
<path d="M5073 4545 c-42 -18 -68 -70 -59 -117 7 -38 48 -82 84 -91 21 -5 22
-3 22 74 0 43 -4 79 -8 79 -18 0 -43 -27 -51 -55 -8 -25 -9 -26 -10 -7 -1 23
39 72 59 72 5 0 10 14 10 30 0 34 -2 35 -47 15z"/>
<path d="M4677 4543 c-4 -3 -7 -16 -7 -29 0 -23 21 -37 44 -28 18 7 27 29 20
49 -6 15 -45 21 -57 8z"/>
<path d="M825 4520 c-4 -6 -1 -17 5 -25 10 -12 6 -20 -19 -44 -17 -16 -31 -32
-31 -37 0 -4 12 -23 26 -41 22 -30 29 -33 40 -21 24 23 34 105 17 139 -17 34
-29 43 -38 29z m35 -89 c0 -11 -5 -23 -11 -27 -15 -9 -33 12 -26 30 9 23 37
20 37 -3z"/>
<path d="M470 4485 c-25 -12 -51 -20 -57 -18 -7 3 -13 0 -13 -6 0 -24 79 -4
125 33 30 23 -1 18 -55 -9z"/>
<path d="M418 4494 c-4 -3 -37 -6 -74 -6 -50 0 -63 -3 -50 -10 30 -17 153 -1
134 17 -2 3 -7 2 -10 -1z"/>
<path d="M720 4415 l-34 -35 46 -47 c46 -46 48 -47 67 -29 21 19 20 19 -19 66
-36 44 -38 48 -22 63 9 9 12 17 6 17 -5 0 -25 -16 -44 -35z"/>
<path d="M4720 4331 c0 -42 5 -64 16 -76 18 -18 55 -17 62 3 2 7 -2 10 -12 6
-20 -8 -46 13 -46 37 0 13 9 19 33 21 28 3 32 6 32 33 0 28 -3 30 -42 33 l-43
3 0 -60z"/>
<path d="M650 4355 c-10 -12 -10 -15 3 -15 19 0 31 16 18 24 -5 3 -14 -1 -21
-9z"/>
<path d="M0 4353 c0 -27 23 -82 35 -87 20 -7 49 37 40 64 -7 22 -34 27 -54 8
-10 -11 -11 -10 -6 5 4 10 2 17 -4 17 -6 0 -11 -3 -11 -7z"/>
<path d="M575 4310 c-9 -15 14 -40 36 -40 24 0 33 18 19 35 -14 17 -46 20 -55
5z"/>
<path d="M530 4285 c-7 -8 -10 -19 -6 -22 9 -9 38 8 38 22 -1 16 -18 16 -32 0z"/>
<path d="M4830 4281 c-13 -25 -13 -54 1 -85 15 -32 34 -39 54 -20 19 20 19 30
-5 82 -21 46 -34 52 -50 23z m46 -66 c-3 -9 -14 -15 -23 -13 -24 4 -29 35 -6
40 24 6 37 -7 29 -27z"/>
<path d="M4800 4205 c0 -19 4 -35 8 -35 4 0 6 16 4 35 -2 19 -6 35 -8 35 -2 0
-4 -16 -4 -35z"/>
<path d="M537 4224 c-4 -4 -7 -16 -7 -26 0 -20 25 -25 36 -7 8 13 -19 43 -29
33z"/>
<path d="M595 4201 c-7 -12 12 -24 25 -16 11 7 4 25 -10 25 -5 0 -11 -4 -15
-9z"/>
<path d="M1 4077 c-1 -30 3 -46 9 -42 12 7 12 42 0 70 -6 15 -9 8 -9 -28z"/>
<path d="M4803 4104 c-9 -4 -13 -35 -13 -104 0 -88 2 -100 19 -110 23 -12 130
-13 149 -2 9 6 12 36 10 113 l-3 104 -75 2 c-41 1 -81 -1 -87 -3z m142 -104
l0 -85 -62 -3 -63 -3 0 84 c0 46 3 87 7 91 4 4 32 6 63 4 l55 -3 0 -85z"/>
<path d="M580 3973 c-45 -16 -53 -80 -15 -118 32 -32 78 -33 109 -1 21 21 27
22 52 11 38 -16 63 -45 118 -134 41 -67 44 -76 31 -91 -8 -9 -15 -23 -15 -30
0 -9 7 -6 20 8 24 26 50 19 50 -14 0 -24 -8 -28 -44 -24 -23 2 -16 -24 8 -28
44 -9 63 60 26 93 -12 11 -40 51 -64 90 -49 80 -124 189 -155 223 -15 16 -31
22 -63 21 -24 0 -50 -3 -58 -6z m50 -63 c0 -5 -14 -10 -31 -10 -17 0 -28 4
-24 10 3 6 17 10 31 10 13 0 24 -4 24 -10z m20 -42 c-24 -20 -41 -20 -48 0 -2
7 5 12 17 12 11 0 23 5 26 10 4 6 11 7 17 4 7 -5 3 -14 -12 -26z"/>
<path d="M1562 3963 c-10 -20 -5 -44 11 -55 14 -9 43 7 51 28 14 37 -44 61
-62 27z"/>
<path d="M0 3870 l0 -60 35 0 c26 0 45 -9 75 -36 64 -58 75 -140 28 -207 -22
-30 -86 -67 -118 -67 -18 0 -20 -6 -20 -61 l0 -62 50 6 c27 3 67 14 87 24 45
21 106 80 129 125 26 50 30 145 9 209 -33 99 -151 189 -247 189 -28 0 -28 -1
-28 -60z"/>
<path d="M400 3880 c-14 -19 -19 -37 -15 -48 6 -14 9 -13 17 9 7 22 15 27 41
25 26 -1 33 3 35 22 3 19 -1 22 -27 22 -22 0 -35 -8 -51 -30z"/>
<path d="M4720 3815 c0 -13 23 -15 145 -15 122 0 145 2 145 15 0 13 -23 15
-145 15 -122 0 -145 -2 -145 -15z"/>
<path d="M400 3805 c-10 -12 -9 -16 5 -21 19 -8 40 9 31 25 -10 15 -21 14 -36
-4z"/>
<path d="M367 3737 c12 -50 13 -76 4 -137 -6 -41 -11 -112 -11 -157 0 -115 1
-115 195 -107 83 4 176 4 208 0 l57 -7 0 -134 0 -133 -30 -11 c-36 -12 -38
-19 -9 -30 23 -8 6 -25 -200 -205 l-64 -56 -128 0 c-103 0 -129 -3 -129 -14 0
-7 7 -20 16 -27 9 -7 20 -23 24 -35 5 -12 20 -24 38 -27 21 -4 85 -60 213
-183 101 -97 190 -188 197 -201 20 -36 13 -220 -8 -233 -8 -5 -61 -10 -117
-10 l-103 0 0 -29 c0 -27 3 -30 36 -33 71 -6 74 -68 4 -68 -37 0 -40 -2 -40
-29 0 -16 6 -33 13 -38 6 -6 68 -13 137 -16 69 -3 140 -10 158 -16 l33 -10 -5
52 c-13 122 -16 188 -17 287 0 58 -3 134 -6 170 -6 63 -8 67 -66 127 -64 67
-100 81 -110 42 -4 -14 -12 -19 -25 -17 -20 3 -252 216 -252 231 0 13 60 -2
96 -24 17 -10 33 -19 36 -19 2 0 46 47 98 105 51 58 103 108 115 111 13 3 37
-2 54 -10 37 -20 40 -8 6 32 -29 34 -26 49 18 102 l29 35 -1 315 c-2 351 -4
362 -71 408 -30 20 -45 22 -166 22 -78 0 -135 -4 -139 -10 -3 -6 -18 -8 -33
-5 -15 3 -21 2 -14 -1 6 -3 10 -10 6 -15 -11 -18 -23 -9 -34 26 -20 59 -28 48
-13 -18z m93 -73 c0 -11 19 -14 95 -14 75 0 97 -3 101 -15 3 -8 -1 -22 -10
-31 -10 -9 -14 -24 -11 -35 10 -32 -4 -57 -39 -69 -19 -6 -42 -20 -51 -30 -25
-28 -40 -25 -68 13 -20 26 -25 47 -30 119 -3 50 -1 85 4 82 5 -3 9 -12 9 -20z
m297 -16 c20 -19 23 -30 21 -92 l-1 -71 -6 66 c-7 77 -28 109 -73 109 -15 0
-28 5 -28 11 0 18 61 2 87 -23z m-42 -139 c4 -5 4 -21 1 -35 -8 -31 -52 -34
-61 -4 -12 36 41 70 60 39z m3 -1578 c8 -5 12 -21 10 -37 -2 -23 -9 -30 -30
-32 -23 -3 -29 2 -34 24 -5 20 -2 31 11 41 22 15 25 16 43 4z m97 -41 c0 -30
-35 -40 -54 -16 -20 24 -6 48 26 44 22 -2 28 -8 28 -28z"/>
<path d="M0 3650 c0 -52 3 -70 13 -70 43 0 64 92 29 123 -34 31 -42 21 -42
-53z"/>
<path d="M4518 3477 c3 -182 2 -203 -14 -214 -14 -10 -129 -13 -526 -13 l-508
0 0 -25 0 -25 509 0 c499 0 509 0 535 21 l26 20 0 209 c0 154 -3 210 -12 218
-10 8 -12 -31 -10 -191z"/>
<path d="M3651 3596 c-8 -9 -11 -49 -9 -117 l3 -104 125 0 125 0 0 35 0 35
-112 3 -113 3 0 65 0 64 180 -2 c231 -4 249 -22 25 -26 -89 -1 -164 -7 -170
-13 -6 -6 51 -9 170 -7 176 3 180 4 183 24 4 27 27 34 124 34 93 0 108 -5 108
-37 0 -16 4 -22 12 -17 8 5 9 1 4 -12 -5 -14 -4 -16 4 -8 6 6 10 29 8 50 l-3
39 -326 3 c-271 2 -328 0 -338 -12z m227 -188 c-3 -9 -36 -14 -106 -16 -86 -2
-102 0 -102 13 0 12 17 15 106 15 80 0 105 -3 102 -12z"/>
<path d="M1422 3571 c2 -7 7 -12 11 -12 12 1 9 15 -3 20 -7 2 -11 -2 -8 -8z"/>
<path d="M4111 3534 c-28 -36 -27 -79 4 -109 52 -53 135 -18 135 56 0 74 -95
109 -139 53z"/>
<path d="M4725 3456 c-29 -35 -57 -57 -76 -61 -27 -6 -29 -10 -29 -51 l0 -44
43 0 c72 0 127 72 127 166 0 24 -4 44 -9 44 -5 0 -30 -24 -56 -54z"/>
<path d="M5084 3453 c-42 -71 -33 -168 20 -212 14 -12 16 0 16 123 0 75 -2
136 -5 136 -2 0 -16 -21 -31 -47z"/>
<path d="M194 3345 c-3 -8 -3 -19 1 -25 9 -15 -23 -24 -39 -11 -19 16 -156
-151 -156 -191 0 -23 4 -28 25 -28 34 0 42 -25 21 -65 -15 -27 -16 -48 -10
-152 6 -117 6 -122 -15 -134 -11 -8 -21 -22 -21 -31 0 -15 10 -18 65 -18 53 0
66 3 75 19 6 12 10 97 10 206 0 211 2 219 77 296 l44 46 -20 34 c-12 19 -21
42 -21 52 0 21 -28 23 -36 2z"/>
<path d="M0 3297 c0 -9 12 -11 40 -9 56 6 61 22 6 22 -31 0 -46 -4 -46 -13z"/>
<path d="M1270 3290 c-8 -5 -10 -10 -5 -10 6 0 17 5 25 10 8 5 11 10 5 10 -5
0 -17 -5 -25 -10z"/>
<path d="M490 3270 c-17 -17 -20 -33 -20 -108 l0 -88 53 -52 c49 -49 56 -52
102 -52 38 0 53 5 61 18 11 17 8 18 -45 14 -54 -4 -57 -3 -95 37 -22 22 -36
44 -32 48 4 4 20 -7 34 -25 25 -29 32 -32 82 -32 51 0 59 3 93 38 36 37 37 40
37 111 0 111 0 111 -135 111 -102 0 -117 -2 -135 -20z m154 -30 c-14 -14 -134
-26 -134 -13 0 19 14 23 79 23 43 0 62 -3 55 -10z m56 -5 c0 -8 -9 -15 -20
-15 -20 0 -26 11 -13 23 12 13 33 7 33 -8z m-66 -44 c4 -5 -7 -12 -23 -16 -34
-7 -101 3 -101 16 0 12 117 12 124 0z m66 -1 c0 -5 -7 -10 -15 -10 -8 0 -15 5
-15 10 0 6 7 10 15 10 8 0 15 -4 15 -10z m-70 -49 c0 -14 -27 -21 -76 -21 -32
0 -44 4 -44 15 0 12 13 15 60 15 33 0 60 -4 60 -9z m78 -3 c-3 -7 -13 -13 -23
-13 -10 0 -20 6 -22 13 -3 7 5 12 22 12 17 0 25 -5 23 -12z m-70 -60 c-7 -19
-50 -21 -73 -4 -19 14 -17 15 28 16 35 0 47 -4 45 -12z m60 0 c-7 -20 -48 -23
-48 -4 0 11 9 16 26 16 16 0 24 -5 22 -12z"/>
<path d="M1142 3279 c7 -5 36 -8 63 -8 60 1 50 6 -23 12 -32 2 -48 1 -40 -4z"/>
<path d="M4855 3225 c-50 -50 -18 -135 51 -135 46 1 84 41 84 90 0 32 -44 70
-80 70 -19 0 -40 -9 -55 -25z m75 -56 c0 -12 -7 -19 -19 -19 -26 0 -36 17 -21
35 15 18 40 8 40 -16z"/>
<path d="M1022 3208 c2 -12 11 -24 21 -26 14 -3 18 1 15 20 -2 12 -11 24 -21
26 -14 3 -18 -1 -15 -20z"/>
<path d="M422 3208 c6 -18 28 -21 28 -4 0 9 -7 16 -16 16 -9 0 -14 -5 -12 -12z"/>
<path d="M942 3208 c-15 -15 -15 -61 0 -76 17 -17 55 -15 62 4 16 42 -1 84
-34 84 -9 0 -21 -5 -28 -12z m46 -31 c2 -11 -3 -17 -17 -17 -25 0 -38 19 -20
31 19 12 33 6 37 -14z"/>
<path d="M4470 3170 c0 -5 14 -10 30 -10 17 0 30 5 30 10 0 6 -13 10 -30 10
-16 0 -30 -4 -30 -10z"/>
<path d="M5053 3158 c-25 -33 -26 -41 -2 -25 13 9 34 17 46 17 13 0 23 5 23
10 0 14 -56 12 -67 -2z"/>
<path d="M425 3150 c-7 -12 2 -30 16 -30 5 0 9 9 9 20 0 21 -15 27 -25 10z"/>
<path d="M236 3118 c-22 -32 -20 -61 7 -86 26 -24 48 -27 78 -11 41 21 44 86
5 111 -24 16 -75 8 -90 -14z"/>
<path d="M1014 3129 c-10 -17 13 -36 27 -22 12 12 4 33 -11 33 -5 0 -12 -5
-16 -11z"/>
<path d="M430 3070 c0 -5 5 -10 10 -10 6 0 10 5 10 10 0 6 -4 10 -10 10 -5 0
-10 -4 -10 -10z"/>
<path d="M3892 3008 c2 -18 10 -23 33 -23 23 0 31 5 33 23 3 19 -1 22 -33 22
-32 0 -36 -3 -33 -22z"/>
<path d="M3587 3013 c-10 -9 -8 -55 2 -71 5 -9 30 -12 86 -10 86 3 103 15 91
61 -6 27 -8 27 -90 27 -45 0 -86 -3 -89 -7z m153 -38 c0 -12 -14 -15 -70 -15
-56 0 -70 3 -70 15 0 12 14 15 70 15 56 0 70 -3 70 -15z"/>
<path d="M390 2970 c-23 -23 -24 -30 -8 -65 24 -53 108 -35 108 24 0 55 -61
80 -100 41z"/>
<path d="M284 2906 c-3 -8 -4 -27 -2 -43 3 -24 7 -28 33 -28 28 0 30 3 33 43
3 41 2 42 -28 42 -17 0 -33 -6 -36 -14z"/>
<path d="M691 2794 c-12 -15 -21 -33 -21 -41 0 -20 46 -63 67 -63 32 0 63 29
63 58 0 69 -69 97 -109 46z"/>
<path d="M1347 2768 c-50 -37 -60 -316 -17 -468 25 -87 86 -208 134 -264 l33
-39 37 28 c30 22 39 25 51 15 8 -7 15 -18 15 -25 0 -15 -101 -112 -160 -152
-125 -85 -326 -163 -422 -163 l-38 0 0 -84 0 -85 53 36 c28 19 124 71 212 115
189 95 245 130 337 209 71 61 78 65 94 50 25 -24 153 -66 279 -92 162 -33 193
-35 202 -13 12 31 -20 44 -137 54 -138 11 -213 30 -293 72 -114 61 -198 156
-246 278 -16 41 -20 46 -15 20 7 -36 42 -112 76 -165 18 -27 16 -26 -11 5 -35
38 -83 154 -112 269 -15 58 -19 110 -19 243 0 155 -1 168 -18 168 -10 0 -26
-6 -35 -12z"/>
<path d="M176 2709 c-52 -41 -23 -129 44 -129 33 0 70 31 69 58 0 13 -2 12 -9
-5 -18 -43 -68 -55 -100 -23 -27 27 -26 75 2 94 31 22 57 20 87 -6 l26 -23
-24 28 c-29 32 -59 34 -95 6z"/>
<path d="M807 2698 c-10 -17 -16 -33 -13 -35 7 -7 38 45 34 56 -1 6 -11 -3
-21 -21z"/>
<path d="M585 2670 l-49 -50 34 -35 c33 -34 36 -35 108 -35 81 0 87 -4 157
-93 l31 -39 -4 41 c-3 34 -11 48 -44 74 -42 34 -68 74 -68 105 0 13 -9 21 -28
25 -16 3 -40 17 -53 31 -13 14 -26 26 -29 26 -3 0 -28 -22 -55 -50z"/>
<path d="M0 2535 l0 -54 48 -3 47 -3 3 -54 c4 -60 -15 -91 -55 -91 -12 0 -23
-4 -23 -10 0 -18 84 -11 110 10 17 13 41 20 73 20 l48 0 -3 87 -3 86 -65 27
c-36 15 -91 30 -122 33 l-58 6 0 -54z"/>
<path d="M4835 2545 c-14 -13 -25 -29 -25 -35 0 -5 -9 -10 -20 -10 -11 0 -20
-7 -20 -15 0 -8 7 -15 15 -15 8 0 17 -11 21 -25 3 -14 11 -25 16 -25 6 0 7 11
4 27 -9 35 10 78 40 92 38 17 53 14 85 -18 22 -22 29 -25 29 -13 -1 59 -99 84
-145 37z"/>
<path d="M370 2498 c0 -6 56 -69 125 -139 135 -137 148 -163 101 -194 -36 -24
-77 -2 -171 94 -44 45 -86 81 -94 81 -8 0 19 -35 60 -77 41 -43 91 -97 111
-121 l36 -43 73 3 74 3 3 61 3 61 -83 79 c-213 205 -238 225 -238 192z"/>
<path d="M4960 2460 c0 -6 -15 -19 -32 -30 l-33 -20 32 0 c22 0 36 6 43 19 13
25 13 41 0 41 -5 0 -10 -5 -10 -10z"/>
<path d="M4586 2393 c-3 -3 -6 -42 -6 -85 0 -63 3 -78 15 -78 12 0 15 15 15
79 0 74 -7 100 -24 84z"/>
<path d="M4740 2290 c0 -5 5 -10 11 -10 5 0 7 5 4 10 -3 6 -8 10 -11 10 -2 0
-4 -4 -4 -10z"/>
<path d="M4775 2260 c3 -6 20 -10 37 -10 38 0 34 5 -10 13 -21 4 -31 3 -27 -3z"/>
<path d="M145 2221 c38 -23 79 -71 83 -96 25 -151 -34 -230 -165 -223 -55 4
-63 2 -63 -14 0 -16 11 -18 116 -18 l115 0 26 56 c34 75 31 170 -9 227 -31 46
-84 87 -112 87 -18 0 -16 -3 9 -19z"/>
<path d="M264 2215 c-4 -9 -2 -21 4 -27 16 -16 47 -5 47 17 0 26 -42 34 -51
10z"/>
<path d="M4750 2196 c0 -9 5 -16 10 -16 6 0 10 4 10 9 0 6 -4 13 -10 16 -5 3
-10 -1 -10 -9z"/>
<path d="M317 2173 c-12 -11 -8 -23 8 -23 8 0 15 7 15 15 0 16 -12 20 -23 8z"/>
<path d="M3365 2171 c-3 -5 3 -11 12 -13 15 -3 14 -6 -7 -26 -23 -22 -23 -22
-4 -36 16 -12 22 -13 39 -2 27 18 30 43 9 67 -18 20 -39 25 -49 10z"/>
<path d="M22 2144 c-12 -8 -22 -21 -22 -29 0 -10 10 -8 38 8 l39 21 34 -20
c19 -11 36 -29 38 -40 2 -15 -1 -13 -19 9 -24 31 -64 36 -96 12 -19 -14 -19
-14 2 -15 32 0 48 -24 34 -50 -9 -18 -18 -21 -41 -16 -26 5 -29 3 -29 -19 0
-39 64 -60 111 -35 26 15 49 62 49 104 0 65 -84 108 -138 70z"/>
<path d="M2 2060 c0 -14 2 -19 5 -12 2 6 2 18 0 25 -3 6 -5 1 -5 -13z"/>
<path d="M3317 2053 c-12 -12 -7 -50 8 -63 12 -10 18 -10 30 0 21 17 19 47 -4
60 -23 12 -26 12 -34 3z"/>
<path d="M4740 2040 c0 -5 7 -10 15 -10 8 0 15 5 15 10 0 6 -7 10 -15 10 -8 0
-15 -4 -15 -10z"/>
<path d="M326 1968 c-19 -29 -37 -63 -41 -75 -6 -23 -5 -23 74 -23 94 0 101 6
101 94 l0 56 -50 0 c-49 0 -50 -1 -84 -52z"/>
<path d="M4742 1962 c-2 -8 2 -20 9 -28 20 -20 74 -4 74 22 0 15 -7 19 -39 19
-23 0 -41 -5 -44 -13z"/>
<path d="M3242 1958 c-17 -17 -15 -43 4 -58 13 -11 19 -10 37 8 17 18 19 26
11 40 -14 22 -36 26 -52 10z"/>
<path d="M3484 1906 c-10 -26 4 -48 28 -44 17 2 23 10 23 28 0 18 -6 26 -23
28 -13 2 -25 -3 -28 -12z"/>
<path d="M1623 1884 l-28 -25 32 15 c33 16 52 36 34 36 -5 0 -23 -11 -38 -26z"/>
<path d="M2230 1865 l0 -25 150 0 150 0 0 25 0 25 -150 0 -150 0 0 -25z"/>
<path d="M3171 1867 c-9 -11 -7 -20 8 -38 19 -23 20 -23 38 -6 14 13 15 21 7
35 -15 22 -38 26 -53 9z"/>
<path d="M1550 1834 c0 -5 7 -18 15 -28 8 -11 15 -16 15 -10 0 5 -7 18 -15 28
-8 11 -15 16 -15 10z"/>
<path d="M0 1781 c0 -20 29 -23 255 -34 33 -2 73 -14 120 -37 70 -35 70 -35
77 -83 4 -27 8 -50 10 -51 2 -1 56 0 121 2 94 3 117 7 117 18 0 11 5 12 18 6
33 -16 101 -5 137 22 19 15 35 31 35 36 0 4 3 15 6 23 4 12 -16 22 -90 46 -79
25 -113 31 -189 31 -75 0 -98 4 -122 20 -28 18 -47 20 -262 20 -223 0 -233 -1
-233 -19z m784 -71 c5 -5 6 -20 2 -34 -9 -36 -53 -37 -62 -1 -9 38 2 58 28 50
13 -4 27 -11 32 -15z m-199 -45 c0 -30 -4 -41 -18 -43 -26 -5 -47 16 -47 48 0
34 8 42 40 38 22 -3 25 -8 25 -43z m93 -56 c-2 -6 -8 -10 -13 -10 -5 0 -11 4
-13 10 -2 6 4 11 13 11 9 0 15 -5 13 -11z"/>
<path d="M3080 1765 c-18 -22 -8 -50 19 -50 32 0 49 28 32 49 -17 20 -35 20
-51 1z m45 -25 c0 -8 -8 -16 -17 -18 -13 -2 -18 3 -18 18 0 15 5 20 18 18 9
-2 17 -10 17 -18z"/>
<path d="M4934 1728 l-29 -33 33 29 c17 17 32 31 32 33 0 8 -8 1 -36 -29z"/>
<path d="M18 1733 c-32 -8 -20 -26 13 -19 17 3 40 6 51 6 10 0 16 5 13 10 -6
10 -45 12 -77 3z"/>
<path d="M130 1721 c0 -9 81 -21 90 -14 2 2 -2 8 -10 13 -19 12 -80 13 -80 1z"/>
<path d="M2936 1661 c-64 -67 -83 -99 -132 -226 -16 -41 -26 -52 -54 -62 -29
-9 -32 -12 -17 -18 15 -6 17 -15 11 -51 -5 -35 -2 -48 15 -70 11 -14 23 -42
27 -61 12 -62 26 -20 35 99 14 213 32 269 106 351 85 92 97 107 86 107 -5 0
-40 -31 -77 -69z"/>
<path d="M4120 1695 c0 -9 82 -46 93 -42 7 2 -10 13 -37 25 -52 23 -56 25 -56
17z"/>
<path d="M281 1667 c7 -12 24 -38 39 -57 52 -66 63 -99 63 -185 0 -59 -5 -94
-21 -135 -39 -97 -18 -109 24 -14 13 30 28 54 33 54 5 0 15 -10 23 -21 12 -19
17 -20 39 -9 36 19 39 27 39 121 0 77 -2 88 -23 107 -13 12 -26 22 -30 22 -4
0 -7 -29 -7 -65 0 -58 -2 -65 -20 -65 -17 0 -20 7 -20 48 0 26 -3 77 -6 114
-6 56 -10 67 -28 72 -11 3 -42 12 -69 20 l-47 15 11 -22z m189 -308 c0 -23
-28 -25 -36 -4 -4 8 -3 22 0 31 5 13 9 14 21 4 8 -7 15 -21 15 -31z"/>
<path d="M1950 1670 c-11 -11 -20 -28 -20 -38 0 -25 116 -182 135 -182 22 0
19 9 -10 32 -14 11 -44 47 -66 80 -31 44 -39 66 -35 84 7 27 8 27 146 26 94 0
94 0 30 8 -118 14 -158 12 -180 -10z"/>
<path d="M4910 1682 c0 -5 7 -15 15 -22 8 -7 15 -8 15 -2 0 5 -7 15 -15 22 -8
7 -15 8 -15 2z"/>
<path d="M18 1673 c-10 -2 -18 -10 -18 -16 0 -9 25 -12 83 -12 90 0 139 -18
186 -69 27 -29 41 -33 41 -12 0 19 -65 75 -114 97 -39 18 -133 24 -178 12z"/>
<path d="M2207 1653 c-4 -3 -7 -15 -7 -25 0 -17 11 -18 148 -18 148 0 172 5
172 37 0 10 -34 13 -153 13 -85 0 -157 -3 -160 -7z"/>
<path d="M2530 1650 c0 -6 48 -10 124 -10 73 0 127 4 131 10 4 6 -40 10 -124
10 -81 0 -131 -4 -131 -10z"/>
<path d="M3203 1643 c-10 -26 19 -68 47 -68 31 0 44 41 22 68 -19 22 -61 22
-69 0z m47 -13 c0 -5 -7 -10 -15 -10 -8 0 -15 5 -15 10 0 6 7 10 15 10 8 0 15
-4 15 -10z"/>
<path d="M4884 1625 c-9 -22 3 -45 20 -39 17 6 29 32 20 45 -8 14 -34 11 -40
-6z"/>
<path d="M37 1618 l-37 -10 0 -58 0 -58 37 19 c45 23 63 24 108 5 101 -43 96
-178 -9 -233 -34 -17 -87 -10 -107 14 -12 15 -12 16 6 8 11 -4 37 -10 57 -13
33 -3 43 1 73 31 58 58 45 136 -27 173 -49 25 -138 -5 -138 -46 0 -15 5 -13
29 11 59 58 151 24 151 -56 0 -49 -15 -74 -55 -91 -41 -17 -73 -7 -104 32
l-21 27 0 -86 0 -85 31 -11 c130 -45 280 39 304 172 27 144 -149 295 -298 255z"/>
<path d="M5102 1588 c-9 -11 -10 -18 -2 -23 17 -10 11 -23 -12 -27 -53 -7 -91
-121 -68 -203 12 -43 72 -125 91 -125 12 0 12 127 -1 135 -13 8 -13 88 0 101
6 6 10 42 8 84 -3 62 -5 71 -16 58z"/>
<path d="M2562 1567 c-17 -18 -22 -37 -24 -107 l-3 -85 -152 -5 c-151 -5 -152
-5 -182 -34 -37 -35 -33 -47 5 -17 25 20 38 21 215 21 l189 0 0 53 c0 59 12
77 50 77 29 0 70 37 70 63 0 35 -37 57 -93 57 -43 0 -58 -5 -75 -23z"/>
<path d="M2118 1555 c-10 -22 -8 -30 9 -53 20 -26 23 -27 132 -30 103 -2 112
-1 109 15 -3 15 -16 18 -81 21 -68 2 -78 5 -75 20 3 14 18 17 94 20 90 3 91 2
103 -24 11 -25 13 -26 28 -11 10 10 13 24 9 41 l-6 26 -155 0 -155 0 -12 -25z"/>
<path d="M840 1539 c-19 -10 -45 -19 -57 -19 -13 0 -23 -4 -23 -10 0 -18 -29
-10 -40 11 -10 17 -19 20 -63 17 -50 -3 -52 -4 -55 -35 l-3 -32 95 -3 c110 -3
135 -22 36 -25 -36 -2 -80 -5 -98 -9 -32 -5 -33 -7 -30 -47 l3 -42 50 -3 c32
-2 53 1 60 10 5 7 26 15 45 16 19 2 43 8 53 14 13 7 25 5 42 -6 31 -20 37 -20
33 2 -1 9 12 38 30 64 30 44 31 48 14 57 -10 5 -24 21 -32 35 -16 31 -15 30
-60 5z m50 -47 c0 -15 -25 -41 -44 -44 -10 -2 -25 7 -33 20 -14 20 -14 22 0
16 9 -3 24 -1 34 5 22 13 43 14 43 3z m-115 -92 c-3 -5 -19 -10 -36 -10 -16 0
-29 5 -29 10 0 6 16 10 36 10 21 0 33 -4 29 -10z"/>
<path d="M1648 1548 c-7 -19 2 -38 17 -38 18 0 26 15 19 34 -7 19 -30 21 -36
4z"/>
<path d="M2910 1540 c-12 -7 -12 -13 -4 -27 17 -28 49 -23 49 7 0 27 -21 36
-45 20z m30 -26 c0 -8 -4 -12 -10 -9 -5 3 -10 10 -10 16 0 5 5 9 10 9 6 0 10
-7 10 -16z"/>
<path d="M3475 1529 c-16 -5 -47 -7 -67 -4 -31 4 -36 2 -32 -10 17 -44 -75
-104 -161 -105 -48 0 -51 -2 -87 -51 l-38 -52 0 -102 c0 -117 -26 -238 -64
-295 -13 -19 -26 -45 -30 -57 -10 -30 -31 -35 -59 -12 -35 26 -48 24 -45 -8 3
-25 0 -28 -39 -33 -52 -8 -73 -25 -73 -61 0 -33 17 -44 78 -52 64 -8 137 -60
191 -137 38 -55 49 -65 63 -56 25 15 51 -9 35 -35 -17 -27 1 -41 61 -47 48 -4
49 -3 55 24 4 23 -2 36 -28 66 -32 35 -55 90 -55 133 0 59 45 145 68 131 8 -5
5 -19 -10 -47 -16 -31 -19 -53 -16 -103 3 -54 9 -71 38 -109 27 -35 40 -45 55
-40 18 5 18 5 2 -20 -9 -15 -17 -28 -17 -30 0 -1 17 -3 38 -2 34 0 38 2 34 22
-6 31 23 73 51 73 14 0 44 -22 81 -59 52 -52 57 -62 52 -88 -6 -25 -1 -38 26
-74 41 -53 69 -69 124 -69 63 0 74 -19 74 -128 0 -91 0 -92 25 -92 24 0 25 2
25 71 0 52 3 70 13 66 8 -3 11 -24 9 -71 -3 -54 -1 -66 12 -66 13 0 16 15 16
89 0 80 -2 90 -20 96 -10 3 -31 20 -46 38 -25 30 -26 35 -20 108 l6 77 -52 46
c-29 25 -56 46 -60 46 -4 0 -17 18 -29 40 -24 42 -37 48 -58 28 -17 -18 -35 7
-62 91 -24 70 -30 174 -16 248 l8 41 -168 100 c-93 55 -175 107 -182 115 -25
31 -31 78 -15 112 20 43 49 54 157 61 107 7 149 24 177 69 20 32 29 136 13
134 -5 0 -21 -5 -38 -10z m-342 -516 c4 -3 -1 -16 -10 -27 -18 -21 -18 -21 5
-2 31 27 40 12 17 -29 -20 -39 -24 -41 -50 -21 -19 14 -19 14 0 50 20 36 26
41 38 29z m54 -88 c-31 -48 -54 -34 -25 16 16 29 25 36 34 28 10 -9 9 -17 -9
-44z m73 6 c0 -5 -7 -14 -16 -21 -8 -8 -20 -22 -25 -32 -9 -18 -8 -18 10 -8
12 6 21 15 21 21 0 23 30 18 83 -15 32 -19 64 -40 72 -46 21 -18 18 -50 -7
-77 -37 -40 -63 -30 -144 51 l-74 74 26 31 c24 29 54 41 54 22z m410 -436 c13
-16 7 -45 -9 -45 -5 0 -17 7 -26 16 -12 12 -13 19 -4 30 15 18 24 18 39 -1z"/>
<path d="M46 1454 c-46 -45 -19 -116 46 -122 62 -5 95 71 52 119 -21 23 -76
25 -98 3z"/>
<path d="M5112 1400 c0 -14 2 -19 5 -12 2 6 2 18 0 25 -3 6 -5 1 -5 -13z"/>
<path d="M2657 1343 c-11 -10 -8 -73 3 -73 6 0 10 18 10 40 0 41 -2 45 -13 33z"/>
<path d="M4980 1309 c0 -11 5 -17 10 -14 6 3 10 13 10 21 0 8 -4 14 -10 14 -5
0 -10 -9 -10 -21z"/>
<path d="M744 1309 c-9 -16 12 -33 31 -25 14 5 15 9 5 21 -15 18 -26 19 -36 4z"/>
<path d="M561 1269 c-21 -28 -27 -31 -67 -27 -24 2 -44 0 -44 -3 0 -4 -13 -21
-29 -38 -27 -28 -33 -30 -75 -25 -37 5 -46 4 -46 -8 0 -18 41 -38 78 -38 19
-1 33 -10 47 -33 l20 -32 170 -5 170 -5 0 -180 c0 -99 -3 -191 -8 -204 -15
-46 -32 -50 -194 -51 -148 0 -153 -1 -153 -21 0 -20 3 -21 180 -17 234 4 224
-5 228 184 3 98 7 134 15 131 8 -2 13 -42 15 -120 l3 -117 38 0 38 0 -5 49
c-2 30 0 51 7 55 8 5 11 -10 11 -48 l0 -56 128 0 c80 0 147 6 182 15 81 22
134 19 200 -11 l58 -26 36 28 35 28 -32 14 c-44 18 -65 39 -72 74 -5 22 -11
28 -23 24 -10 -3 -57 -20 -107 -37 -73 -26 -106 -32 -170 -32 -114 1 -182 28
-254 104 -108 112 -101 96 -101 219 l0 110 -28 0 c-17 0 -38 10 -52 25 -13 14
-29 25 -37 25 -22 0 -15 -27 12 -44 41 -27 33 -48 -17 -44 -36 2 -44 7 -46 26
-4 30 -22 28 -22 -2 0 -14 -4 -27 -8 -30 -21 -13 -31 15 -34 89 -2 43 -8 80
-13 82 -6 2 -21 -11 -34 -28z m-13 -107 c4 -28 -24 -40 -45 -19 -14 13 -14 19
-3 32 18 22 44 15 48 -13z"/>
<path d="M2251 1286 c-7 -8 -11 -27 -9 -43 l3 -28 164 0 c142 0 165 2 174 17
8 12 8 24 -1 42 l-12 26 -154 0 c-121 0 -156 -3 -165 -14z"/>
<path d="M3214 1266 c-8 -20 -1 -47 11 -47 12 1 14 50 3 57 -5 3 -11 -2 -14
-10z"/>
<path d="M710 1256 c0 -7 8 -16 18 -20 9 -3 23 -9 30 -12 18 -9 14 17 -5 32
-23 17 -43 18 -43 0z"/>
<path d="M2662 1219 c-53 -20 -51 -96 3 -121 22 -10 30 -8 53 9 63 47 17 139
-56 112z"/>
<path d="M4820 1210 c0 -5 7 -10 15 -10 8 0 15 5 15 10 0 6 -7 10 -15 10 -8 0
-15 -4 -15 -10z"/>
<path d="M215 1168 c-42 -23 -134 -30 -187 -15 -28 7 -28 7 -28 -43 l0 -50
186 0 c171 0 185 1 182 18 -2 11 -13 17 -33 18 -28 0 -47 8 -85 33 -12 8 -11
14 10 35 29 32 11 34 -45 4z"/>
<path d="M3845 1146 c-39 -19 -84 -49 -100 -67 -33 -36 -19 -31 37 13 125 98
287 98 414 2 54 -42 67 -44 30 -5 -15 15 -53 41 -84 57 -47 24 -72 30 -142 32
-80 3 -89 2 -155 -32z"/>
<path d="M4503 1154 c-8 -21 13 -42 28 -27 13 13 5 43 -11 43 -6 0 -13 -7 -17
-16z"/>
<path d="M2090 1128 c-56 -38 -72 -69 -78 -146 -7 -107 4 -157 45 -203 20 -22
50 -43 71 -49 47 -13 193 -13 226 0 24 9 26 14 26 68 0 36 6 66 15 78 9 12 14
44 15 92 0 68 2 76 29 103 16 16 34 29 40 29 15 0 26 -69 12 -83 -6 -6 -11
-27 -11 -46 0 -32 1 -33 18 -18 12 11 36 17 70 17 44 0 54 4 68 24 18 29 13
42 -33 80 -17 15 -33 37 -35 49 -3 22 -4 22 -224 25 -215 2 -221 2 -254 -20z
m165 -42 c75 -32 82 -117 16 -186 -49 -52 -93 -55 -145 -9 -85 74 -35 194 87
208 4 1 23 -5 42 -13z"/>
<path d="M2166 1048 c-23 -33 -20 -65 10 -95 20 -20 31 -24 57 -19 67 13 87
67 42 111 -32 33 -87 34 -109 3z"/>
<path d="M4877 1123 c-15 -14 -7 -43 12 -43 26 0 36 17 21 35 -14 16 -23 19
-33 8z"/>
<path d="M4995 1080 c10 -11 20 -20 23 -20 3 0 -3 9 -13 20 -10 11 -20 20 -23
20 -3 0 3 -9 13 -20z"/>
<path d="M3925 1041 c-117 -30 -195 -128 -195 -246 0 -73 23 -128 75 -178 136
-132 367 -55 407 136 34 162 -131 328 -287 288z"/>
<path d="M4747 1024 c-18 -18 15 -24 124 -24 99 0 119 3 119 15 0 12 -20 15
-118 15 -65 0 -122 -3 -125 -6z"/>
<path d="M0 1000 c0 -6 30 -10 70 -10 40 0 70 4 70 10 0 6 -30 10 -70 10 -40
0 -70 -4 -70 -10z"/>
<path d="M270 973 l0 -38 65 3 65 4 0 34 0 34 -65 0 -65 0 0 -37z"/>
<path d="M410 975 c0 -24 5 -35 15 -35 10 0 15 11 15 35 0 24 -5 35 -15 35
-10 0 -15 -11 -15 -35z"/>
<path d="M460 976 c0 -37 11 -45 47 -38 19 3 23 11 23 38 0 32 -2 34 -35 34
-33 0 -35 -2 -35 -34z"/>
<path d="M5050 1001 c0 -5 16 -11 35 -13 24 -3 35 0 35 9 0 8 -13 13 -35 13
-19 0 -35 -4 -35 -9z"/>
<path d="M2694 982 c-47 -31 -33 -105 21 -110 37 -4 62 14 70 50 11 45 -51 87
-91 60z"/>
<path d="M4290 981 c0 -13 29 -35 37 -28 7 8 -15 37 -28 37 -5 0 -9 -4 -9 -9z"/>
<path d="M4730 965 c0 -13 21 -15 130 -15 109 0 130 2 130 15 0 13 -21 15
-130 15 -109 0 -130 -2 -130 -15z"/>
<path d="M2840 929 c0 -24 4 -38 10 -34 6 3 10 22 10 41 0 19 -4 34 -10 34 -5
0 -10 -18 -10 -41z"/>
<path d="M80 926 c0 -11 9 -16 26 -16 16 0 39 -13 60 -34 l34 -34 0 -185 c0
-170 2 -186 20 -210 12 -15 36 -29 55 -33 l35 -6 0 -104 0 -104 -27 0 c-86 0
-149 42 -164 109 -11 49 -9 54 15 45 12 -5 16 -14 12 -29 -8 -31 38 -74 62
-59 29 19 26 45 -12 83 -42 43 -43 50 -55 239 l-7 133 -41 42 c-22 23 -52 60
-67 82 l-26 40 0 -56 c0 -40 5 -60 17 -70 19 -16 47 -79 39 -87 -4 -3 -17 5
-31 18 l-25 23 0 -42 c0 -30 12 -67 38 -119 33 -67 37 -84 36 -147 -1 -47 -8
-89 -24 -128 -28 -74 -46 -62 -20 13 11 30 19 71 20 92 0 31 -3 35 -19 31 -16
-4 -20 1 -24 29 -2 18 -5 -60 -5 -173 l-2 -206 39 -31 c22 -18 51 -32 64 -32
23 0 21 3 -20 44 -37 38 -43 48 -34 64 6 11 8 22 4 25 -11 12 19 37 43 37 36
0 53 -43 29 -70 -18 -20 -18 -21 3 -43 12 -13 22 -31 22 -40 0 -11 8 -17 25
-17 23 0 24 3 27 77 3 65 6 78 21 81 15 3 17 -6 17 -77 l0 -81 45 0 45 0 0
169 c0 201 4 227 35 235 29 7 85 71 85 96 0 31 -62 28 -79 -4 -25 -47 -83 -58
-125 -25 l-26 20 0 178 c0 194 -2 203 -62 239 -50 30 -78 36 -78 18z m-12
-717 c-2 -6 -8 -10 -13 -10 -5 0 -11 4 -13 10 -2 6 4 11 13 11 9 0 15 -5 13
-11z"/>
<path d="M225 930 c-3 -5 1 -10 9 -10 8 0 18 5 21 10 3 6 -1 10 -9 10 -8 0
-18 -4 -21 -10z"/>
<path d="M2486 899 c-52 -61 -21 -149 53 -149 44 0 77 29 87 77 17 87 -84 139
-140 72z m84 -44 c10 -12 10 -18 0 -30 -7 -8 -18 -15 -25 -15 -19 0 -36 25
-29 44 8 20 38 21 54 1z"/>
<path d="M4737 923 c-20 -19 9 -23 173 -23 153 0 180 2 180 15 0 13 -26 15
-173 15 -96 0 -177 -3 -180 -7z"/>
<path d="M310 878 c0 -5 64 -7 143 -7 160 2 150 7 -25 11 -65 2 -118 0 -118
-4z"/>
<path d="M626 878 c-13 -43 -15 -71 -6 -88 9 -16 15 -18 30 -10 31 17 26 110
-6 110 -8 0 -16 -6 -18 -12z"/>
<path d="M1546 861 c-36 -37 -33 -85 6 -114 23 -17 31 -19 53 -9 14 7 32 27
40 45 l14 32 1 -32 c0 -22 -7 -37 -25 -51 -14 -11 -25 -30 -25 -44 0 -13 -9
-41 -19 -61 l-19 -38 25 -55 c51 -113 28 -230 -63 -314 -96 -88 -188 -102
-285 -41 l-50 31 -160 0 c-156 0 -160 -1 -184 -25 -22 -22 -25 -32 -25 -105
l0 -80 85 0 c84 0 85 0 85 25 0 23 -4 25 -45 25 -45 0 -45 0 -45 35 0 48 19
55 151 55 107 0 114 -1 168 -32 48 -28 66 -32 126 -33 58 0 81 5 135 31 80 38
132 82 168 143 26 44 27 52 30 214 3 146 2 167 -12 167 -29 0 -30 46 -3 94 31
56 27 80 -26 129 -49 45 -65 46 -101 8z m64 -60 c21 -17 22 -21 10 -36 -26
-31 -82 0 -67 39 8 21 26 20 57 -3z"/>
<path d="M4700 789 c-66 -76 -98 -93 -190 -99 -72 -5 -75 -6 -78 -32 -4 -37
29 -47 58 -18 12 12 24 20 26 17 9 -8 -8 -37 -22 -37 -8 0 -14 -4 -14 -9 0
-16 -34 -21 -70 -11 -31 9 -37 8 -52 -11 -31 -36 -23 -50 22 -43 29 5 47 2 65
-10 25 -16 34 -46 15 -46 -5 0 -10 -7 -10 -15 0 -8 7 -15 16 -15 27 0 -1 -25
-44 -39 -43 -15 -79 -3 -115 37 -18 20 -19 20 -73 -20 -51 -38 -63 -56 -48
-71 4 -3 16 0 28 8 46 33 150 8 162 -39 5 -22 59 -56 89 -56 8 0 34 10 58 21
l44 22 -1 73 c-1 62 2 75 19 88 18 13 17 15 -23 25 -27 8 -42 17 -42 28 0 13
7 14 40 9 31 -5 40 -3 40 8 0 8 9 31 21 50 23 39 52 47 68 19 9 -16 13 -15 45
16 l36 34 -20 32 c-16 26 -17 35 -8 42 23 19 62 36 96 44 29 6 35 4 39 -12 3
-10 12 -19 20 -19 8 0 11 5 7 12 -5 8 -2 9 12 3 35 -14 64 -17 64 -7 0 6 -10
13 -22 15 -13 3 -2 3 24 1 26 -1 65 -12 87 -23 22 -12 43 -21 46 -21 3 0 5 17
5 38 0 59 -18 65 -206 67 l-162 3 -52 -59z"/>
<path d="M577 805 c-14 -10 -55 -13 -148 -13 -71 1 -129 -3 -129 -8 0 -10 232
-18 266 -9 12 2 25 12 28 21 9 23 4 25 -17 9z"/>
<path d="M701 771 c-19 -12 -6 -41 18 -41 23 0 34 23 18 39 -13 13 -18 13 -36
2z"/>
<path d="M4803 758 c-24 -12 -29 -23 -14 -33 13 -7 82 26 75 37 -7 11 -34 9
-61 -4z"/>
<path d="M5011 753 c0 -11 109 -62 109 -52 0 13 -73 59 -92 59 -10 0 -18 -3
-17 -7z"/>
<path d="M1729 738 c7 -10 11 -29 9 -43 -6 -30 8 -33 17 -4 5 15 0 28 -16 43
-13 12 -17 14 -10 4z"/>
<path d="M4276 675 c-23 -56 -95 -138 -150 -170 -23 -13 -66 -29 -96 -36 -68
-14 -88 -29 -29 -22 79 10 151 44 206 96 54 51 112 152 96 168 -4 4 -16 -12
-27 -36z"/>
<path d="M4893 713 c9 -2 23 -2 30 0 6 3 -1 5 -18 5 -16 0 -22 -2 -12 -5z"/>
<path d="M276 681 c-23 -25 -17 -52 14 -68 47 -23 92 34 55 71 -22 21 -48 20
-69 -3z m54 -31 c0 -11 -7 -20 -15 -20 -15 0 -21 21 -8 33 12 13 23 7 23 -13z"/>
<path d="M4846 670 c-104 -41 -176 -146 -176 -255 1 -102 57 -187 157 -236 68
-34 179 -34 246 0 l47 25 0 217 0 217 -47 23 c-66 32 -161 36 -227 9z m125
-25 c-1 -15 -24 -12 -29 3 -3 9 2 13 12 10 10 -1 17 -7 17 -13z m-111 -72 c0
-7 -5 -13 -10 -13 -6 0 -18 -13 -28 -29 -12 -20 -22 -27 -31 -22 -9 6 -6 16
14 40 21 24 24 35 16 45 -6 7 -8 16 -4 19 9 9 43 -23 43 -40z m146 -29 c10 -8
13 -13 7 -9 -7 3 -32 10 -55 14 l-43 9 36 1 c19 1 44 -6 55 -15z m67 -203
c-29 -37 -64 -60 -103 -66 -28 -4 -30 -3 -10 3 84 29 118 68 122 139 1 37 2
37 5 -6 3 -32 -1 -51 -14 -70z m-243 1 c0 -2 -5 0 -11 3 -17 11 -30 56 -23 79
6 17 9 11 20 -29 7 -28 13 -51 14 -53z m28 -49 c-24 -49 -33 -63 -44 -67 -20
-8 -17 12 7 45 18 25 47 42 37 22z m222 -18 c0 -8 -4 -15 -9 -15 -13 0 -22 16
-14 24 11 11 23 6 23 -9z"/>
<path d="M1280 624 c-32 -10 -98 -14 -229 -14 -179 0 -186 -1 -210 -23 -39
-36 -107 -58 -198 -66 -98 -9 -125 -26 -121 -78 3 -42 -25 -81 -80 -111 l-42
-23 0 -155 0 -154 80 0 80 0 0 30 c0 59 -45 116 -113 145 -20 8 -37 19 -37 23
0 12 77 72 92 72 31 0 116 -50 150 -88 46 -51 66 -88 74 -141 6 -37 9 -41 36
-41 27 0 30 3 24 23 -3 12 -9 47 -12 78 -8 68 10 107 63 140 33 21 53 24 165
27 162 5 207 -1 254 -38 77 -62 161 -60 235 7 102 92 115 226 31 323 -63 74
-143 96 -242 64z m80 -24 c0 -5 -7 -10 -15 -10 -19 0 -85 -32 -85 -41 0 -3 7
-12 15 -19 12 -10 21 -8 48 9 38 23 47 26 47 11 0 -5 -18 -21 -41 -36 l-41
-26 -23 22 -23 21 -16 -22 c-26 -38 -21 -56 17 -55 44 1 51 -18 7 -22 -48 -5
-53 -13 -41 -60 22 -82 115 -132 197 -107 60 18 75 32 68 62 -6 22 -4 24 17
21 36 -5 30 -36 -14 -71 -31 -26 -49 -32 -101 -35 -69 -5 -109 10 -158 56 -27
25 -29 25 -178 23 -130 -2 -150 0 -150 13 0 14 19 16 130 16 l130 0 0 43 c0
71 88 186 158 207 38 12 52 12 52 0z m-216 -29 c11 -17 -6 -41 -29 -41 -27 0
-39 14 -31 35 6 16 51 20 60 6z m346 -32 c0 -6 -8 -18 -17 -27 -16 -16 -16
-16 -10 1 4 10 7 23 7 28 0 5 5 9 10 9 6 0 10 -5 10 -11z m-738 -104 c1 -36 2
-75 2 -87 1 -33 -48 -33 -52 0 -2 13 3 25 12 28 12 5 16 21 16 65 0 81 20 75
22 -6z m-124 -32 l-3 -77 -38 -9 c-52 -12 -69 4 -40 35 14 14 24 43 29 76 6
46 9 52 31 52 23 0 24 -1 21 -77z m782 57 c11 -11 20 -26 20 -34 0 -22 -29
-46 -54 -46 -29 0 -46 18 -46 50 0 50 44 66 80 30z m137 -36 c3 -8 1 -25 -5
-37 l-11 -22 0 23 c-1 17 -7 22 -26 22 -16 0 -25 6 -25 15 0 21 59 20 67 -1z
m-259 -96 c-6 -18 -28 -21 -28 -4 0 9 7 16 16 16 9 0 14 -5 12 -12z m122 -14
c0 -8 -7 -14 -15 -14 -15 0 -21 21 -9 33 10 9 24 -2 24 -19z m-60 -29 c0 -8
-7 -15 -15 -15 -9 0 -12 6 -9 15 4 8 10 15 15 15 5 0 9 -7 9 -15z"/>
<path d="M1161 374 c0 -11 3 -14 6 -6 3 7 2 16 -1 19 -3 4 -6 -2 -5 -13z"/>
<path d="M2192 578 l3 -23 260 0 c253 0 260 1 260 20 0 19 -8 20 -263 23
l-263 2 3 -22z"/>
<path d="M0 529 c0 -16 4 -28 9 -25 8 5 3 56 -5 56 -2 0 -4 -14 -4 -31z"/>
<path d="M2910 511 c5 -11 10 -75 10 -142 0 -104 -2 -124 -17 -135 -13 -9 -15
-16 -7 -24 7 -7 15 -5 27 8 13 14 18 48 23 145 6 114 5 129 -11 147 -23 26
-39 26 -25 1z"/>
<path d="M4367 504 c-13 -14 -7 -52 10 -58 25 -10 51 20 37 42 -12 19 -36 27
-47 16z"/>
<path d="M4638 504 c-5 -4 -8 -19 -8 -33 1 -23 2 -24 11 -8 11 19 9 53 -3 41z"/>
<path d="M2090 491 c-62 -5 -75 -9 -78 -25 -7 -36 29 -105 77 -148 70 -63 122
-78 266 -78 141 0 163 -8 225 -84 36 -43 39 -51 26 -64 -13 -13 -20 -10 -58
20 -67 55 -86 61 -172 61 -69 -1 -84 -5 -128 -32 -27 -17 -70 -36 -95 -41 -55
-13 -90 -35 -108 -70 l-14 -27 84 -2 c83 -1 85 -1 106 29 28 37 86 78 129 90
64 18 151 -24 186 -91 17 -34 52 -39 78 -10 10 11 31 23 46 26 48 10 105 59
128 109 19 39 22 63 22 174 0 182 30 167 -344 168 -165 0 -335 -2 -376 -5z
m389 -71 c16 -22 34 -61 40 -86 10 -40 10 -50 -3 -63 -15 -14 -16 -12 -16 21
0 44 -21 96 -56 137 -20 24 -22 31 -10 31 9 0 29 -18 45 -40z m165 24 c11 -27
6 -62 -8 -67 -20 -8 -26 2 -26 45 0 39 22 54 34 22z m124 -36 c3 -53 -15 -72
-55 -57 -19 7 -23 16 -23 52 0 52 5 59 45 55 28 -3 30 -6 33 -50z m-208 2 c0
-43 -13 -52 -30 -21 -17 33 -12 61 10 61 17 0 20 -7 20 -40z m187 -116 c28
-17 40 -59 23 -79 -20 -24 -38 -17 -45 18 -8 37 -32 67 -53 67 -7 0 -27 -9
-43 -21 -61 -43 -23 -130 51 -115 34 6 39 -7 13 -36 -24 -26 -45 -22 -82 16
-66 68 -46 160 37 169 45 4 70 -1 99 -19z m-60 -66 c25 -24 30 -48 10 -48 -15
0 -57 36 -57 49 0 9 11 21 19 21 2 0 15 -10 28 -22z"/>
<path d="M26 455 c4 -8 7 -15 9 -15 2 0 5 7 9 15 3 9 0 15 -9 15 -9 0 -12 -6
-9 -15z"/>
<path d="M3060 327 c0 -112 -3 -120 -53 -132 -15 -4 -40 -24 -54 -44 -15 -20
-52 -62 -82 -93 l-55 -58 57 0 c31 0 57 3 57 8 0 4 20 29 43 55 39 41 49 47
85 47 35 0 47 6 85 45 40 40 50 45 90 45 35 0 53 -6 78 -27 38 -32 68 -95 69
-140 l0 -33 110 0 110 0 0 55 c0 40 -5 59 -19 72 -10 10 -23 34 -30 53 -19 61
-148 210 -180 210 -29 0 -26 -16 4 -24 56 -14 21 -26 -75 -26 -112 0 -147 10
-203 60 l-37 32 0 -105z m390 -51 c0 -9 -15 -17 -40 -21 -43 -7 -60 -2 -60 21
0 10 13 14 50 14 36 0 50 -4 50 -14z"/>
<path d="M4581 395 c0 -16 4 -37 9 -45 8 -12 10 -10 9 10 0 14 -4 34 -9 45 -7
17 -9 16 -9 -10z"/>
<path d="M4112 378 c-7 -7 -12 -20 -12 -29 0 -12 -12 -19 -47 -24 -78 -11 -93
-21 -93 -56 0 -21 -9 -40 -27 -57 -27 -26 -28 -30 -25 -120 2 -68 6 -92 15
-89 7 2 12 27 13 64 1 33 7 69 13 80 18 35 90 63 157 62 l59 -2 -70 -8 c-46
-6 -82 -18 -107 -34 -38 -25 -38 -25 -38 -95 0 -63 2 -70 20 -70 17 0 20 7 20
45 0 35 6 52 28 75 31 36 93 54 138 40 29 -8 29 -8 -9 -9 -49 -1 -103 -24
-116 -49 -6 -12 -11 -39 -11 -61 0 -39 2 -41 30 -41 21 0 28 4 24 14 -15 39
60 91 97 68 10 -7 23 -12 28 -12 14 0 61 -45 61 -59 0 -6 16 -11 39 -11 36 0
39 2 55 44 26 67 49 91 136 138 64 34 80 48 80 66 0 12 -1 22 -3 22 -1 0 -28
-9 -59 -20 -43 -15 -63 -17 -89 -10 -29 9 -37 7 -59 -14 -32 -31 -77 -48 -104
-40 -11 3 -39 18 -61 32 -22 15 -41 27 -43 28 -2 1 4 13 12 26 17 26 13 40 -9
32 -20 -8 -27 12 -10 26 22 18 19 60 -3 60 -10 0 -23 -5 -30 -12z"/>
<path d="M4235 335 c-14 -13 -25 -33 -25 -45 0 -24 42 -70 63 -70 31 0 67 41
67 75 0 61 -61 84 -105 40z m65 -35 c0 -5 -4 -10 -10 -10 -5 0 -10 5 -10 10 0
6 5 10 10 10 6 0 10 -4 10 -10z"/>
<path d="M3853 284 c-8 -22 9 -49 33 -49 30 0 27 59 -4 63 -14 2 -25 -3 -29
-14z"/>
<path d="M4610 286 c-16 -21 8 -71 35 -71 26 0 31 29 11 60 -19 29 -29 31 -46
11z"/>
<path d="M1908 150 c-16 -35 -44 -72 -77 -103 -33 -29 -47 -47 -37 -47 44 0
157 153 143 193 -2 7 -15 -13 -29 -43z"/>
<path d="M4590 181 c13 -26 13 -31 -5 -31 -7 0 -18 7 -23 16 -11 19 -32 10
-32 -13 0 -19 60 -87 109 -125 25 -19 48 -28 76 -28 34 0 43 5 57 29 12 22 21
28 37 24 21 -5 30 -23 12 -23 -5 0 -11 -7 -15 -15 -5 -13 16 -15 154 -15 l160
0 0 80 c0 44 -1 80 -2 80 -2 0 -28 -9 -58 -21 -101 -39 -198 -25 -298 41 -25
17 -31 18 -26 6 3 -8 22 -26 42 -38 19 -12 30 -24 24 -26 -7 -2 -35 13 -64 33
-43 31 -55 36 -70 26 -24 -15 -43 -14 -58 4 -18 22 -33 19 -20 -4z m260 -96
c0 -8 -4 -15 -9 -15 -13 0 -22 16 -14 24 11 11 23 6 23 -9z m170 -20 c0 -8 -7
-15 -15 -15 -8 0 -15 7 -15 15 0 8 7 15 15 15 8 0 15 -7 15 -15z"/>
<path d="M3170 100 c0 -5 14 -10 30 -10 17 0 30 5 30 10 0 6 -13 10 -30 10
-16 0 -30 -4 -30 -10z"/>
<path d="M4434 85 c-20 -31 -10 -63 23 -71 33 -9 57 6 61 38 6 53 -55 77 -84
33z m66 -14 c14 -28 -13 -55 -41 -41 -19 10 -26 40 -12 53 13 14 43 7 53 -12z"/>
<path d="M4455 70 c-10 -16 16 -43 28 -31 11 11 2 41 -12 41 -5 0 -13 -5 -16
-10z"/>
<path d="M3258 74 c4 -23 2 -24 -54 -24 -40 0 -55 -3 -48 -10 12 -12 96 -16
113 -6 15 10 14 53 -2 59 -10 4 -13 -2 -9 -19z"/>
<path d="M1035 41 c-7 -12 12 -24 25 -16 11 7 4 25 -10 25 -5 0 -11 -4 -15 -9z"/>
<path d="M1130 35 c0 -12 14 -15 69 -15 39 0 73 -5 76 -10 9 -15 25 -12 25 5
0 23 -34 35 -104 35 -52 0 -66 -3 -66 -15z"/>
<path d="M2340 32 c-28 -23 -19 -43 10 -24 25 15 45 15 70 0 24 -15 39 -2 19
17 -25 26 -72 29 -99 7z"/>
</g>
</svg>